<svg xmlns="http://www.w3.org/2000/svg" width="32" height="32" fill="none" viewBox="0 0 32 32" id="books">
  <g filter="url(#filter0_i_18_20855)">
    <path fill="url(#paint0_linear_18_20855)" d="M16.5725 11.0757H28.9625C29.7073 11.0757 30.3111 11.6795 30.3111 12.4243V28H16.5725V11.0757Z"></path>
    <path fill="url(#paint1_linear_18_20855)" d="M16.5725 11.0757H28.9625C29.7073 11.0757 30.3111 11.6795 30.3111 12.4243V28H16.5725V11.0757Z"></path>
    <path fill="url(#paint2_radial_18_20855)" d="M16.5725 11.0757H28.9625C29.7073 11.0757 30.3111 11.6795 30.3111 12.4243V28H16.5725V11.0757Z"></path>
  </g>
  <path fill="url(#paint3_linear_18_20855)" d="M15.814 27.5957H30.3111V29.2814H29.974L29.6368 29.6186H15.814V27.5957Z"></path>
  <path fill="url(#paint4_linear_18_20855)" d="M15.814 27.5957H30.3111V29.2814H29.974L29.6368 29.6186H15.814V27.5957Z"></path>
  <path fill="url(#paint5_linear_18_20855)" d="M16.4882 11.0757C15.9296 11.0757 15.4768 11.5285 15.4768 12.0871V28.6071H16.1511C16.1511 28.2347 16.453 27.9328 16.8254 27.9328H17.4997V11.0757H16.4882Z"></path>
  <path fill="url(#paint6_radial_18_20855)" d="M16.4882 11.0757C15.9296 11.0757 15.4768 11.5285 15.4768 12.0871V28.6071H16.1511C16.1511 28.2347 16.453 27.9328 16.8254 27.9328H17.4997V11.0757H16.4882Z"></path>
  <g filter="url(#filter1_i_18_20855)">
    <path fill="url(#paint7_linear_18_20855)" d="M16.4882 27.2585C15.9296 27.2585 15.4768 27.7114 15.4768 28.27V28.9443C15.4768 29.5029 15.9296 29.9557 16.4882 29.9557H29.5746C30.0149 29.9557 30.3111 29.7302 30.3111 29.2814H16.8254C16.453 29.2814 16.1511 28.9795 16.1511 28.6071C16.1511 28.2347 16.453 27.9328 16.8254 27.9328H30.3111V27.2585H16.4882Z"></path>
  </g>
  <path fill="url(#paint8_linear_18_20855)" d="M10.4371 7.03625H21.9C22.6448 7.03625 23.2486 7.64003 23.2486 8.38483V23.2191H10.4371V7.03625Z"></path>
  <path fill="url(#paint9_linear_18_20855)" d="M10.4371 7.03625H21.9C22.6448 7.03625 23.2486 7.64003 23.2486 8.38483V23.2191H10.4371V7.03625Z"></path>
  <path fill="url(#paint10_radial_18_20855)" d="M10.4371 7.03625H21.9C22.6448 7.03625 23.2486 7.64003 23.2486 8.38483V23.2191H10.4371V7.03625Z"></path>
  <path fill="url(#paint11_linear_18_20855)" d="M8.75146 23.5563H23.2486V25.242H22.9115L22.5743 25.5791H8.75146V23.5563Z"></path>
  <path fill="url(#paint12_linear_18_20855)" d="M8.75146 23.5563H23.2486V25.242H22.9115L22.5743 25.5791H8.75146V23.5563Z"></path>
  <path fill="url(#paint13_linear_18_20855)" d="M9.42574 7.03625C8.86714 7.03625 8.41431 7.48909 8.41431 8.04768V24.5677H9.08859C9.08859 24.1953 9.39048 23.8934 9.76288 23.8934H10.4372V7.03625H9.42574Z"></path>
  <path fill="url(#paint14_radial_18_20855)" d="M9.42574 7.03625C8.86714 7.03625 8.41431 7.48909 8.41431 8.04768V24.5677H9.08859C9.08859 24.1953 9.39048 23.8934 9.76288 23.8934H10.4372V7.03625H9.42574Z"></path>
  <path fill="url(#paint15_radial_18_20855)" d="M9.42574 7.03625C8.86714 7.03625 8.41431 7.48909 8.41431 8.04768V24.5677H9.08859C9.08859 24.1953 9.39048 23.8934 9.76288 23.8934H10.4372V7.03625H9.42574Z"></path>
  <g filter="url(#filter2_i_18_20855)">
    <path fill="url(#paint16_linear_18_20855)" d="M9.42574 23.2191C8.86714 23.2191 8.41431 23.6719 8.41431 24.2305V24.9048C8.41431 25.4634 8.86714 25.9163 9.42574 25.9163H22.5121C22.9524 25.9163 23.2486 25.6907 23.2486 25.242H9.76288C9.39048 25.242 9.08859 24.9401 9.08859 24.5677C9.08859 24.1953 9.39048 23.8934 9.76288 23.8934H23.2486V23.2191H9.42574Z"></path>
  </g>
  <g filter="url(#filter3_i_18_20855)">
    <path fill="url(#paint17_linear_18_20855)" d="M3.28204 4H15.6688C16.4134 4 17.017 4.60362 17.017 5.34821V20.1786H3.28204V4Z"></path>
    <path fill="url(#paint18_linear_18_20855)" d="M3.28204 4H15.6688C16.4134 4 17.017 4.60362 17.017 5.34821V20.1786H3.28204V4Z"></path>
  </g>
  <path fill="url(#paint19_linear_18_20855)" d="M2.52368 20.5156H17.017V22.2009H16.6799L16.3429 22.5379H2.52368V20.5156Z"></path>
  <path fill="url(#paint20_linear_18_20855)" d="M2.52368 20.5156H17.017V22.2009H16.6799L16.3429 22.5379H2.52368V20.5156Z"></path>
  <path fill="url(#paint21_linear_18_20855)" d="M3.19781 4C2.63936 4 2.18665 4.45271 2.18665 5.01116V21.5268H2.86075C2.86075 21.1545 3.16256 20.8527 3.53486 20.8527H4.20897V4H3.19781Z"></path>
  <g filter="url(#filter4_i_18_20855)">
    <path fill="url(#paint22_linear_18_20855)" d="M3.19781 20.1786C2.63936 20.1786 2.18665 20.6313 2.18665 21.1897V21.8639C2.18665 22.4223 2.63936 22.875 3.19781 22.875H16.2807C16.7209 22.875 17.017 22.6495 17.017 22.2009H3.53486C3.16256 22.2009 2.86075 21.8991 2.86075 21.5268C2.86075 21.1545 3.16256 20.8527 3.53486 20.8527H17.017V20.1786H3.19781Z"></path>
  </g>
  <defs>
    <linearGradient id="paint0_linear_18_20855" x1="23.905" x2="23.905" y1="11.076" y2="27.259" gradientUnits="userSpaceOnUse">
      <stop stop-color="#56D1F3"></stop>
      <stop offset="1" stop-color="#39ADF1"></stop>
    </linearGradient>
    <linearGradient id="paint1_linear_18_20855" x1="30.416" x2="29.089" y1="13.457" y2="13.646" gradientUnits="userSpaceOnUse">
      <stop offset=".014" stop-color="#7FECFF"></stop>
      <stop offset="1" stop-color="#60DEFF" stop-opacity="0"></stop>
    </linearGradient>
    <linearGradient id="paint3_linear_18_20855" x1="16.638" x2="30.189" y1="28.887" y2="28.887" gradientUnits="userSpaceOnUse">
      <stop stop-color="#D5BCEB"></stop>
      <stop offset="1" stop-color="#DCCCED"></stop>
      <stop offset="1" stop-color="#E3D3F2"></stop>
    </linearGradient>
    <linearGradient id="paint4_linear_18_20855" x1="23.063" x2="23.063" y1="27.756" y2="28.713" gradientUnits="userSpaceOnUse">
      <stop stop-color="#9F84AE"></stop>
      <stop offset="1" stop-color="#C5B1D6" stop-opacity="0"></stop>
    </linearGradient>
    <linearGradient id="paint5_linear_18_20855" x1="15.615" x2="17.205" y1="21.013" y2="21.021" gradientUnits="userSpaceOnUse">
      <stop stop-color="#44A3D2"></stop>
      <stop offset="1" stop-color="#3C8FCC"></stop>
    </linearGradient>
    <linearGradient id="paint7_linear_18_20855" x1="16.442" x2="30.311" y1="29.257" y2="29.235" gradientUnits="userSpaceOnUse">
      <stop stop-color="#3769C5"></stop>
      <stop offset="1" stop-color="#3666C3"></stop>
    </linearGradient>
    <linearGradient id="paint8_linear_18_20855" x1="16.843" x2="16.843" y1="7.036" y2="23.219" gradientUnits="userSpaceOnUse">
      <stop stop-color="#E13074"></stop>
      <stop offset="1" stop-color="#E0334C"></stop>
    </linearGradient>
    <linearGradient id="paint9_linear_18_20855" x1="24.388" x2="22.561" y1="9.317" y2="9.382" gradientUnits="userSpaceOnUse">
      <stop offset=".409" stop-color="#F76594"></stop>
      <stop offset="1" stop-color="#FA6295" stop-opacity="0"></stop>
    </linearGradient>
    <linearGradient id="paint11_linear_18_20855" x1="9.575" x2="23.127" y1="24.848" y2="24.848" gradientUnits="userSpaceOnUse">
      <stop stop-color="#D5BCEB"></stop>
      <stop offset="1" stop-color="#DCCCED"></stop>
      <stop offset="1" stop-color="#E3D3F2"></stop>
    </linearGradient>
    <linearGradient id="paint12_linear_18_20855" x1="16" x2="16" y1="23.717" y2="24.674" gradientUnits="userSpaceOnUse">
      <stop stop-color="#9F84AE"></stop>
      <stop offset="1" stop-color="#C5B1D6" stop-opacity="0"></stop>
    </linearGradient>
    <linearGradient id="paint13_linear_18_20855" x1="8.553" x2="10.437" y1="16.974" y2="16.974" gradientUnits="userSpaceOnUse">
      <stop stop-color="#9A3E4F"></stop>
      <stop offset="1" stop-color="#AA2C4D"></stop>
    </linearGradient>
    <linearGradient id="paint16_linear_18_20855" x1="9.379" x2="23.249" y1="25.218" y2="25.196" gradientUnits="userSpaceOnUse">
      <stop stop-color="#AB1F5C"></stop>
      <stop offset="1" stop-color="#A51E5A"></stop>
    </linearGradient>
    <linearGradient id="paint17_linear_18_20855" x1="10.613" x2="10.613" y1="4" y2="20.179" gradientUnits="userSpaceOnUse">
      <stop stop-color="#A6E051"></stop>
      <stop offset="1" stop-color="#74D891"></stop>
    </linearGradient>
    <linearGradient id="paint18_linear_18_20855" x1="17.122" x2="15.795" y1="6.38" y2="6.57" gradientUnits="userSpaceOnUse">
      <stop offset=".014" stop-color="#C0FA7C"></stop>
      <stop offset="1" stop-color="#B0ED5B" stop-opacity="0"></stop>
    </linearGradient>
    <linearGradient id="paint19_linear_18_20855" x1="3.347" x2="16.895" y1="21.807" y2="21.807" gradientUnits="userSpaceOnUse">
      <stop stop-color="#D5BCEB"></stop>
      <stop offset="1" stop-color="#DCCCED"></stop>
      <stop offset="1" stop-color="#E3D3F2"></stop>
    </linearGradient>
    <linearGradient id="paint20_linear_18_20855" x1="9.77" x2="9.77" y1="20.676" y2="21.633" gradientUnits="userSpaceOnUse">
      <stop stop-color="#9F84AE"></stop>
      <stop offset="1" stop-color="#C5B1D6" stop-opacity="0"></stop>
    </linearGradient>
    <linearGradient id="paint21_linear_18_20855" x1="2.325" x2="3.914" y1="13.935" y2="13.943" gradientUnits="userSpaceOnUse">
      <stop stop-color="#63B33B"></stop>
      <stop offset="1" stop-color="#429B5B"></stop>
    </linearGradient>
    <linearGradient id="paint22_linear_18_20855" x1="3.151" x2="17.017" y1="22.177" y2="22.155" gradientUnits="userSpaceOnUse">
      <stop stop-color="#2E7671"></stop>
      <stop offset="1" stop-color="#2E7172"></stop>
    </linearGradient>
    <radialGradient id="paint2_radial_18_20855" cx="0" cy="0" r="1" gradientTransform="matrix(6.0275 0 0 5.11709 17.414 27.259)" gradientUnits="userSpaceOnUse">
      <stop stop-color="#2E7CD5"></stop>
      <stop offset="1" stop-color="#2E7CD5" stop-opacity="0"></stop>
    </radialGradient>
    <radialGradient id="paint6_radial_18_20855" cx="0" cy="0" r="1" gradientTransform="matrix(0 4.21875 -2.46036 0 17.5 25.625)" gradientUnits="userSpaceOnUse">
      <stop stop-color="#3163AE"></stop>
      <stop offset="1" stop-color="#3163AE" stop-opacity="0"></stop>
    </radialGradient>
    <radialGradient id="paint10_radial_18_20855" cx="0" cy="0" r="1" gradientTransform="matrix(6.75 0 0 5.4622 11.008 22.813)" gradientUnits="userSpaceOnUse">
      <stop stop-color="#B21940"></stop>
      <stop offset="1" stop-color="#B21940" stop-opacity="0"></stop>
    </radialGradient>
    <radialGradient id="paint14_radial_18_20855" cx="0" cy="0" r="1" gradientTransform="matrix(0 -4.4809 .78956 0 8.683 23.673)" gradientUnits="userSpaceOnUse">
      <stop stop-color="#9B3F51"></stop>
      <stop offset="1" stop-color="#9B3F51" stop-opacity="0"></stop>
    </radialGradient>
    <radialGradient id="paint15_radial_18_20855" cx="0" cy="0" r="1" gradientTransform="scale(1.86661 3.28125)rotate(90 -.61 6.2)" gradientUnits="userSpaceOnUse">
      <stop offset=".267" stop-color="#8F163A"></stop>
      <stop offset="1" stop-color="#8F163A" stop-opacity="0"></stop>
    </radialGradient>
    <filter id="filter0_i_18_20855" width="13.739" height="17.024" x="16.573" y="11.076" color-interpolation-filters="sRGB" filterUnits="userSpaceOnUse">
      <feFlood flood-opacity="0" result="BackgroundImageFix"></feFlood>
      <feBlend in="SourceGraphic" in2="BackgroundImageFix" result="shape"></feBlend>
      <feColorMatrix in="SourceAlpha" result="hardAlpha" values="0 0 0 0 0 0 0 0 0 0 0 0 0 0 0 0 0 0 127 0"></feColorMatrix>
      <feOffset dy=".1"></feOffset>
      <feGaussianBlur stdDeviation=".25"></feGaussianBlur>
      <feComposite in2="hardAlpha" k2="-1" k3="1" operator="arithmetic"></feComposite>
      <feColorMatrix values="0 0 0 0 0.32549 0 0 0 0 0.807843 0 0 0 0 0.933333 0 0 0 1 0"></feColorMatrix>
      <feBlend in2="shape" result="effect1_innerShadow_18_20855"></feBlend>
    </filter>
    <filter id="filter1_i_18_20855" width="14.834" height="2.797" x="15.477" y="27.259" color-interpolation-filters="sRGB" filterUnits="userSpaceOnUse">
      <feFlood flood-opacity="0" result="BackgroundImageFix"></feFlood>
      <feBlend in="SourceGraphic" in2="BackgroundImageFix" result="shape"></feBlend>
      <feColorMatrix in="SourceAlpha" result="hardAlpha" values="0 0 0 0 0 0 0 0 0 0 0 0 0 0 0 0 0 0 127 0"></feColorMatrix>
      <feOffset dy=".1"></feOffset>
      <feGaussianBlur stdDeviation=".15"></feGaussianBlur>
      <feComposite in2="hardAlpha" k2="-1" k3="1" operator="arithmetic"></feComposite>
      <feColorMatrix values="0 0 0 0 0.168627 0 0 0 0 0.388235 0 0 0 0 0.74902 0 0 0 1 0"></feColorMatrix>
      <feBlend in2="shape" result="effect1_innerShadow_18_20855"></feBlend>
    </filter>
    <filter id="filter2_i_18_20855" width="14.834" height="2.797" x="8.414" y="23.219" color-interpolation-filters="sRGB" filterUnits="userSpaceOnUse">
      <feFlood flood-opacity="0" result="BackgroundImageFix"></feFlood>
      <feBlend in="SourceGraphic" in2="BackgroundImageFix" result="shape"></feBlend>
      <feColorMatrix in="SourceAlpha" result="hardAlpha" values="0 0 0 0 0 0 0 0 0 0 0 0 0 0 0 0 0 0 127 0"></feColorMatrix>
      <feOffset dy=".1"></feOffset>
      <feGaussianBlur stdDeviation=".15"></feGaussianBlur>
      <feComposite in2="hardAlpha" k2="-1" k3="1" operator="arithmetic"></feComposite>
      <feColorMatrix values="0 0 0 0 0.694118 0 0 0 0 0.192157 0 0 0 0 0.360784 0 0 0 1 0"></feColorMatrix>
      <feBlend in2="shape" result="effect1_innerShadow_18_20855"></feBlend>
    </filter>
    <filter id="filter3_i_18_20855" width="13.735" height="16.279" x="3.282" y="4" color-interpolation-filters="sRGB" filterUnits="userSpaceOnUse">
      <feFlood flood-opacity="0" result="BackgroundImageFix"></feFlood>
      <feBlend in="SourceGraphic" in2="BackgroundImageFix" result="shape"></feBlend>
      <feColorMatrix in="SourceAlpha" result="hardAlpha" values="0 0 0 0 0 0 0 0 0 0 0 0 0 0 0 0 0 0 127 0"></feColorMatrix>
      <feOffset dy=".1"></feOffset>
      <feGaussianBlur stdDeviation=".25"></feGaussianBlur>
      <feComposite in2="hardAlpha" k2="-1" k3="1" operator="arithmetic"></feComposite>
      <feColorMatrix values="0 0 0 0 0.623529 0 0 0 0 0.858824 0 0 0 0 0.290196 0 0 0 1 0"></feColorMatrix>
      <feBlend in2="shape" result="effect1_innerShadow_18_20855"></feBlend>
    </filter>
    <filter id="filter4_i_18_20855" width="14.83" height="2.796" x="2.187" y="20.179" color-interpolation-filters="sRGB" filterUnits="userSpaceOnUse">
      <feFlood flood-opacity="0" result="BackgroundImageFix"></feFlood>
      <feBlend in="SourceGraphic" in2="BackgroundImageFix" result="shape"></feBlend>
      <feColorMatrix in="SourceAlpha" result="hardAlpha" values="0 0 0 0 0 0 0 0 0 0 0 0 0 0 0 0 0 0 127 0"></feColorMatrix>
      <feOffset dy=".1"></feOffset>
      <feGaussianBlur stdDeviation=".15"></feGaussianBlur>
      <feComposite in2="hardAlpha" k2="-1" k3="1" operator="arithmetic"></feComposite>
      <feColorMatrix values="0 0 0 0 0.113725 0 0 0 0 0.435294 0 0 0 0 0.439216 0 0 0 1 0"></feColorMatrix>
      <feBlend in2="shape" result="effect1_innerShadow_18_20855"></feBlend>
    </filter>
  </defs>
</svg>
