<svg xmlns="http://www.w3.org/2000/svg" width="32" height="32" fill="none" viewBox="0 0 32 32" id="clapper">
  <path fill="url(#paint0_linear_18_20191)" d="M4.14514 16.9692C4.14514 16.8312 4.25707 16.7192 4.39514 16.7192H25.1741C25.3122 16.7192 25.4241 16.8312 25.4241 16.9692V27.9731C25.4241 29.0224 24.5735 29.8731 23.5241 29.8731H6.04514C4.9958 29.8731 4.14514 29.0224 4.14514 27.9731V16.9692Z"></path>
  <path fill="url(#paint1_linear_18_20191)" d="M4.14514 16.9692C4.14514 16.8312 4.25707 16.7192 4.39514 16.7192H25.1741C25.3122 16.7192 25.4241 16.8312 25.4241 16.9692V27.9731C25.4241 29.0224 24.5735 29.8731 23.5241 29.8731H6.04514C4.9958 29.8731 4.14514 29.0224 4.14514 27.9731V16.9692Z"></path>
  <path fill="url(#paint2_linear_18_20191)" d="M4.14514 16.9692C4.14514 16.8312 4.25707 16.7192 4.39514 16.7192H25.1741C25.3122 16.7192 25.4241 16.8312 25.4241 16.9692V27.9731C25.4241 29.0224 24.5735 29.8731 23.5241 29.8731H6.04514C4.9958 29.8731 4.14514 29.0224 4.14514 27.9731V16.9692Z"></path>
  <g filter="url(#filter0_iii_18_20191)">
    <path fill="url(#paint3_linear_18_20191)" d="M6.64514 16.9692C6.64514 16.8312 6.75707 16.7192 6.89514 16.7192H27.6741C27.8122 16.7192 27.9241 16.8312 27.9241 16.9692V27.9731C27.9241 29.0224 27.0735 29.8731 26.0241 29.8731H8.54514C7.4958 29.8731 6.64514 29.0224 6.64514 27.9731V16.9692Z"></path>
  </g>
  <path fill="url(#paint4_linear_18_20191)" d="M6.64514 16.9692C6.64514 16.8312 6.75707 16.7192 6.89514 16.7192H27.6741C27.8122 16.7192 27.9241 16.8312 27.9241 16.9692V27.9731C27.9241 29.0224 27.0735 29.8731 26.0241 29.8731H8.54514C7.4958 29.8731 6.64514 29.0224 6.64514 27.9731V16.9692Z"></path>
  <path fill="url(#paint5_linear_18_20191)" d="M4.14514 13.1328C4.14514 12.9947 4.25707 12.8828 4.39514 12.8828H25.1741C25.3122 12.8828 25.4241 12.9947 25.4241 13.1328V16.4693C25.4241 16.6074 25.3122 16.7193 25.1741 16.7193H4.39514C4.25707 16.7193 4.14514 16.6074 4.14514 16.4693V13.1328Z"></path>
  <path fill="url(#paint6_linear_18_20191)" d="M4.14514 13.1328C4.14514 12.9947 4.25707 12.8828 4.39514 12.8828H25.1741C25.3122 12.8828 25.4241 12.9947 25.4241 13.1328V16.4693C25.4241 16.6074 25.3122 16.7193 25.1741 16.7193H4.39514C4.25707 16.7193 4.14514 16.6074 4.14514 16.4693V13.1328Z"></path>
  <g filter="url(#filter1_ii_18_20191)">
    <path fill="url(#paint7_linear_18_20191)" d="M6.64514 13.1328C6.64514 12.9947 6.75707 12.8828 6.89514 12.8828H27.6741C27.8122 12.8828 27.9241 12.9947 27.9241 13.1328V16.4693C27.9241 16.6074 27.8122 16.7193 27.6741 16.7193H6.89514C6.75707 16.7193 6.64514 16.6074 6.64514 16.4693V13.1328Z"></path>
  </g>
  <path fill="url(#paint8_linear_18_20191)" d="M3.66775 9.82828C3.39057 8.75906 4.03264 7.66757 5.10187 7.39039L22.4203 2.90079C23.4895 2.6236 24.581 3.26568 24.8581 4.3349L25.3353 6.17569C25.37 6.30934 25.2897 6.44577 25.1561 6.48042L4.44969 11.8483C4.31604 11.883 4.17961 11.8027 4.14496 11.6691L3.66775 9.82828Z"></path>
  <path fill="url(#paint9_linear_18_20191)" d="M3.66775 9.82828C3.39057 8.75906 4.03264 7.66757 5.10187 7.39039L22.4203 2.90079C23.4895 2.6236 24.581 3.26568 24.8581 4.3349L25.3353 6.17569C25.37 6.30934 25.2897 6.44577 25.1561 6.48042L4.44969 11.8483C4.31604 11.883 4.17961 11.8027 4.14496 11.6691L3.66775 9.82828Z"></path>
  <g filter="url(#filter2_iii_18_20191)">
    <path fill="url(#paint10_linear_18_20191)" d="M5.76163 9.28531C5.48444 8.21609 6.12652 7.12461 7.19574 6.84742L24.5141 2.35782C25.5834 2.08063 26.6748 2.72271 26.952 3.79193L27.4292 5.63272C27.4639 5.76637 27.3836 5.90281 27.25 5.93745L6.54357 11.3054C6.40991 11.34 6.27348 11.2597 6.23883 11.1261L5.76163 9.28531Z"></path>
  </g>
  <g filter="url(#filter3_ii_18_20191)">
    <path fill="#CACBFF" d="M15.7504 8.91864L11.0459 10.1383C10.9608 9.98657 10.8414 9.89407 10.7688 9.83786L10.7563 9.82816C9.68335 8.99222 7.47815 7.27817 7.24065 7.10941C7.08997 7.00235 6.97951 6.95883 6.90894 6.94528C7.0006 6.9061 7.09636 6.87326 7.1958 6.84747L11.6081 5.70361C11.7296 5.75012 11.8233 5.81635 11.8891 5.86722C12.3155 6.19714 12.9411 6.67661 13.5433 7.13803C14.3717 7.77289 15.1556 8.37363 15.3149 8.50394C15.5816 8.70142 15.6951 8.83154 15.7504 8.91864Z"></path>
  </g>
  <g filter="url(#filter4_ii_18_20191)">
    <path fill="#CACBFF" d="M25.1072 6.49304L20.3887 7.71625C20.2952 7.54614 20.1608 7.41629 20.0844 7.35944C19.0532 6.56516 16.925 4.92505 16.6626 4.71881C16.5112 4.59988 16.3647 4.53412 16.2502 4.50024L20.9722 3.27612C21.1501 3.36331 21.3026 3.48206 21.4306 3.58179L21.436 3.586C22.4725 4.39328 24.6079 6.05161 24.8579 6.22662C24.9997 6.32593 25.0729 6.41989 25.1072 6.49304Z"></path>
  </g>
  <g filter="url(#filter5_f_18_20191)">
    <path stroke="url(#paint11_linear_18_20191)" stroke-linecap="round" stroke-width=".25" d="M7.17944 17.0938H27.5544"></path>
  </g>
  <g filter="url(#filter6_f_18_20191)">
    <path stroke="url(#paint12_linear_18_20191)" stroke-linecap="round" stroke-width=".15" d="M7.06226 13.2188H27.7107"></path>
  </g>
  <g filter="url(#filter7_ii_18_20191)">
    <path fill="#CDCDFF" d="M7.98132 16.7193C8.05911 16.6768 8.1546 16.6061 8.25717 16.4932C8.46315 16.2666 10.1625 14.2589 10.9865 13.2833C11.0445 13.2067 11.1495 13.0388 11.1871 12.8828H16.1094C16.0578 12.9983 15.9705 13.1635 15.8186 13.3519C15.6469 13.5648 13.9733 15.5348 13.1579 16.4932C13.1104 16.5491 13.0148 16.6349 12.9006 16.7193H7.98132Z"></path>
  </g>
  <g filter="url(#filter8_ii_18_20191)">
    <path fill="#CDCDFF" d="M17.7828 16.7193C17.8606 16.6768 17.9561 16.6061 18.0587 16.4932C18.2647 16.2666 19.9641 14.2589 20.788 13.2833C20.846 13.2067 20.951 13.0388 20.9887 12.8828H25.9109C25.8593 12.9983 25.772 13.1635 25.6201 13.3519C25.4484 13.5648 23.7748 15.5348 22.9594 16.4932C22.9119 16.5491 22.8163 16.6349 22.7021 16.7193H17.7828Z"></path>
  </g>
  <g filter="url(#filter9_f_18_20191)">
    <path stroke="#D3D4FF" stroke-linecap="round" stroke-width=".15" d="M11.2263 13.2188H15.7419"></path>
  </g>
  <g filter="url(#filter10_f_18_20191)">
    <path stroke="#D3D4FF" stroke-linecap="round" stroke-width=".15" d="M21.0388 13.2188H25.5544"></path>
  </g>
  <defs>
    <linearGradient id="paint0_linear_18_20191" x1="4.508" x2="6.851" y1="22.219" y2="22.219" gradientUnits="userSpaceOnUse">
      <stop stop-color="#473850"></stop>
      <stop offset="1" stop-color="#3F314A"></stop>
    </linearGradient>
    <linearGradient id="paint1_linear_18_20191" x1="5.789" x2="5.789" y1="30.094" y2="28.062" gradientUnits="userSpaceOnUse">
      <stop stop-color="#5F75A6"></stop>
      <stop offset="1" stop-color="#443C61" stop-opacity="0"></stop>
    </linearGradient>
    <linearGradient id="paint2_linear_18_20191" x1="6.054" x2="6.054" y1="16.719" y2="17.344" gradientUnits="userSpaceOnUse">
      <stop stop-color="#1E0F2A"></stop>
      <stop offset="1" stop-color="#45374F" stop-opacity="0"></stop>
    </linearGradient>
    <linearGradient id="paint3_linear_18_20191" x1="17.285" x2="17.285" y1="17.892" y2="29.873" gradientUnits="userSpaceOnUse">
      <stop stop-color="#7B638E"></stop>
      <stop offset="1" stop-color="#8180C8"></stop>
    </linearGradient>
    <linearGradient id="paint4_linear_18_20191" x1="6.645" x2="7.414" y1="26.656" y2="26.656" gradientUnits="userSpaceOnUse">
      <stop stop-color="#5F5691"></stop>
      <stop offset="1" stop-color="#5F5691" stop-opacity="0"></stop>
    </linearGradient>
    <linearGradient id="paint5_linear_18_20191" x1="4.476" x2="6.601" y1="16.438" y2="14.344" gradientUnits="userSpaceOnUse">
      <stop stop-color="#45374F"></stop>
      <stop offset="1" stop-color="#3F3148"></stop>
    </linearGradient>
    <linearGradient id="paint6_linear_18_20191" x1="6.383" x2="6.383" y1="16.719" y2="16.281" gradientUnits="userSpaceOnUse">
      <stop stop-color="#22112E"></stop>
      <stop offset="1" stop-color="#3D2E49" stop-opacity="0"></stop>
    </linearGradient>
    <linearGradient id="paint7_linear_18_20191" x1="17.285" x2="17.285" y1="14.344" y2="16.719" gradientUnits="userSpaceOnUse">
      <stop stop-color="#8F6DBD"></stop>
      <stop offset="1" stop-color="#8661B9"></stop>
    </linearGradient>
    <linearGradient id="paint8_linear_18_20191" x1="5.664" x2="4.789" y1="11.688" y2="7.594" gradientUnits="userSpaceOnUse">
      <stop stop-color="#483751"></stop>
      <stop offset="1" stop-color="#514257"></stop>
    </linearGradient>
    <linearGradient id="paint9_linear_18_20191" x1="5.57" x2="5.976" y1="6.969" y2="8.781" gradientUnits="userSpaceOnUse">
      <stop stop-color="#947397"></stop>
      <stop offset="1" stop-color="#5B4860" stop-opacity="0"></stop>
    </linearGradient>
    <linearGradient id="paint10_linear_18_20191" x1="19.695" x2="18.601" y1="3.812" y2="8.031" gradientUnits="userSpaceOnUse">
      <stop stop-color="#8D74BA"></stop>
      <stop offset="1" stop-color="#8A6EB8"></stop>
    </linearGradient>
    <linearGradient id="paint11_linear_18_20191" x1="27.742" x2="7.429" y1="17.094" y2="17.094" gradientUnits="userSpaceOnUse">
      <stop stop-color="#857498"></stop>
      <stop offset="1" stop-color="#786585"></stop>
    </linearGradient>
    <linearGradient id="paint12_linear_18_20191" x1="27.625" x2="7.312" y1="13.219" y2="13.219" gradientUnits="userSpaceOnUse">
      <stop stop-color="#9474BC"></stop>
      <stop offset="1" stop-color="#9C81C5"></stop>
    </linearGradient>
    <filter id="filter0_iii_18_20191" width="21.629" height="13.654" x="6.545" y="16.469" color-interpolation-filters="sRGB" filterUnits="userSpaceOnUse">
      <feFlood flood-opacity="0" result="BackgroundImageFix"></feFlood>
      <feBlend in="SourceGraphic" in2="BackgroundImageFix" result="shape"></feBlend>
      <feColorMatrix in="SourceAlpha" result="hardAlpha" values="0 0 0 0 0 0 0 0 0 0 0 0 0 0 0 0 0 0 127 0"></feColorMatrix>
      <feOffset dx=".35"></feOffset>
      <feGaussianBlur stdDeviation=".125"></feGaussianBlur>
      <feComposite in2="hardAlpha" k2="-1" k3="1" operator="arithmetic"></feComposite>
      <feColorMatrix values="0 0 0 0 0.333333 0 0 0 0 0.215686 0 0 0 0 0.4 0 0 0 1 0"></feColorMatrix>
      <feBlend in2="shape" result="effect1_innerShadow_18_20191"></feBlend>
      <feColorMatrix in="SourceAlpha" result="hardAlpha" values="0 0 0 0 0 0 0 0 0 0 0 0 0 0 0 0 0 0 127 0"></feColorMatrix>
      <feOffset dx="-.1" dy="-.35"></feOffset>
      <feGaussianBlur stdDeviation=".125"></feGaussianBlur>
      <feComposite in2="hardAlpha" k2="-1" k3="1" operator="arithmetic"></feComposite>
      <feColorMatrix values="0 0 0 0 0.4 0 0 0 0 0.478431 0 0 0 0 0.788235 0 0 0 1 0"></feColorMatrix>
      <feBlend in2="effect1_innerShadow_18_20191" result="effect2_innerShadow_18_20191"></feBlend>
      <feColorMatrix in="SourceAlpha" result="hardAlpha" values="0 0 0 0 0 0 0 0 0 0 0 0 0 0 0 0 0 0 127 0"></feColorMatrix>
      <feOffset dy=".25"></feOffset>
      <feGaussianBlur stdDeviation=".125"></feGaussianBlur>
      <feComposite in2="hardAlpha" k2="-1" k3="1" operator="arithmetic"></feComposite>
      <feColorMatrix values="0 0 0 0 0.34902 0 0 0 0 0.219608 0 0 0 0 0.435294 0 0 0 1 0"></feColorMatrix>
      <feBlend in2="effect2_innerShadow_18_20191" result="effect3_innerShadow_18_20191"></feBlend>
    </filter>
    <filter id="filter1_ii_18_20191" width="21.429" height="4.136" x="6.645" y="12.733" color-interpolation-filters="sRGB" filterUnits="userSpaceOnUse">
      <feFlood flood-opacity="0" result="BackgroundImageFix"></feFlood>
      <feBlend in="SourceGraphic" in2="BackgroundImageFix" result="shape"></feBlend>
      <feColorMatrix in="SourceAlpha" result="hardAlpha" values="0 0 0 0 0 0 0 0 0 0 0 0 0 0 0 0 0 0 127 0"></feColorMatrix>
      <feOffset dx=".3" dy="-.3"></feOffset>
      <feGaussianBlur stdDeviation=".075"></feGaussianBlur>
      <feComposite in2="hardAlpha" k2="-1" k3="1" operator="arithmetic"></feComposite>
      <feColorMatrix values="0 0 0 0 0.454902 0 0 0 0 0.313726 0 0 0 0 0.682353 0 0 0 1 0"></feColorMatrix>
      <feBlend in2="shape" result="effect1_innerShadow_18_20191"></feBlend>
      <feColorMatrix in="SourceAlpha" result="hardAlpha" values="0 0 0 0 0 0 0 0 0 0 0 0 0 0 0 0 0 0 127 0"></feColorMatrix>
      <feOffset dy=".3"></feOffset>
      <feGaussianBlur stdDeviation=".075"></feGaussianBlur>
      <feComposite in2="hardAlpha" k2="-1" k3="1" operator="arithmetic"></feComposite>
      <feColorMatrix values="0 0 0 0 0.431373 0 0 0 0 0.301961 0 0 0 0 0.603922 0 0 0 1 0"></feColorMatrix>
      <feBlend in2="effect1_innerShadow_18_20191" result="effect2_innerShadow_18_20191"></feBlend>
    </filter>
    <filter id="filter2_iii_18_20191" width="22.04" height="9.32" x="5.547" y="2.143" color-interpolation-filters="sRGB" filterUnits="userSpaceOnUse">
      <feFlood flood-opacity="0" result="BackgroundImageFix"></feFlood>
      <feBlend in="SourceGraphic" in2="BackgroundImageFix" result="shape"></feBlend>
      <feColorMatrix in="SourceAlpha" result="hardAlpha" values="0 0 0 0 0 0 0 0 0 0 0 0 0 0 0 0 0 0 127 0"></feColorMatrix>
      <feOffset dx="-.2" dy=".1"></feOffset>
      <feGaussianBlur stdDeviation=".075"></feGaussianBlur>
      <feComposite in2="hardAlpha" k2="-1" k3="1" operator="arithmetic"></feComposite>
      <feColorMatrix values="0 0 0 0 0.623529 0 0 0 0 0.541176 0 0 0 0 0.788235 0 0 0 1 0"></feColorMatrix>
      <feBlend in2="shape" result="effect1_innerShadow_18_20191"></feBlend>
      <feColorMatrix in="SourceAlpha" result="hardAlpha" values="0 0 0 0 0 0 0 0 0 0 0 0 0 0 0 0 0 0 127 0"></feColorMatrix>
      <feOffset dx=".3" dy="-.4"></feOffset>
      <feGaussianBlur stdDeviation=".075"></feGaussianBlur>
      <feComposite in2="hardAlpha" k2="-1" k3="1" operator="arithmetic"></feComposite>
      <feColorMatrix values="0 0 0 0 0.454902 0 0 0 0 0.313726 0 0 0 0 0.682353 0 0 0 1 0"></feColorMatrix>
      <feBlend in2="effect1_innerShadow_18_20191" result="effect2_innerShadow_18_20191"></feBlend>
      <feColorMatrix in="SourceAlpha" result="hardAlpha" values="0 0 0 0 0 0 0 0 0 0 0 0 0 0 0 0 0 0 127 0"></feColorMatrix>
      <feOffset dx=".3" dy=".3"></feOffset>
      <feGaussianBlur stdDeviation=".075"></feGaussianBlur>
      <feComposite in2="hardAlpha" k2="-1" k3="1" operator="arithmetic"></feComposite>
      <feColorMatrix values="0 0 0 0 0.462745 0 0 0 0 0.368627 0 0 0 0 0.635294 0 0 0 1 0"></feColorMatrix>
      <feBlend in2="effect2_innerShadow_18_20191" result="effect3_innerShadow_18_20191"></feBlend>
    </filter>
    <filter id="filter3_ii_18_20191" width="9.142" height="4.735" x="6.759" y="5.554" color-interpolation-filters="sRGB" filterUnits="userSpaceOnUse">
      <feFlood flood-opacity="0" result="BackgroundImageFix"></feFlood>
      <feBlend in="SourceGraphic" in2="BackgroundImageFix" result="shape"></feBlend>
      <feColorMatrix in="SourceAlpha" result="hardAlpha" values="0 0 0 0 0 0 0 0 0 0 0 0 0 0 0 0 0 0 127 0"></feColorMatrix>
      <feOffset dx=".25" dy=".25"></feOffset>
      <feGaussianBlur stdDeviation=".075"></feGaussianBlur>
      <feComposite in2="hardAlpha" k2="-1" k3="1" operator="arithmetic"></feComposite>
      <feColorMatrix values="0 0 0 0 0.713726 0 0 0 0 0.741176 0 0 0 0 1 0 0 0 1 0"></feColorMatrix>
      <feBlend in2="shape" result="effect1_innerShadow_18_20191"></feBlend>
      <feColorMatrix in="SourceAlpha" result="hardAlpha" values="0 0 0 0 0 0 0 0 0 0 0 0 0 0 0 0 0 0 127 0"></feColorMatrix>
      <feOffset dx="-.25" dy="-.25"></feOffset>
      <feGaussianBlur stdDeviation=".075"></feGaussianBlur>
      <feComposite in2="hardAlpha" k2="-1" k3="1" operator="arithmetic"></feComposite>
      <feColorMatrix values="0 0 0 0 0.713726 0 0 0 0 0.741176 0 0 0 0 1 0 0 0 1 0"></feColorMatrix>
      <feBlend in2="effect1_innerShadow_18_20191" result="effect2_innerShadow_18_20191"></feBlend>
    </filter>
    <filter id="filter4_ii_18_20191" width="9.157" height="4.74" x="16.1" y="3.126" color-interpolation-filters="sRGB" filterUnits="userSpaceOnUse">
      <feFlood flood-opacity="0" result="BackgroundImageFix"></feFlood>
      <feBlend in="SourceGraphic" in2="BackgroundImageFix" result="shape"></feBlend>
      <feColorMatrix in="SourceAlpha" result="hardAlpha" values="0 0 0 0 0 0 0 0 0 0 0 0 0 0 0 0 0 0 127 0"></feColorMatrix>
      <feOffset dx=".25" dy=".25"></feOffset>
      <feGaussianBlur stdDeviation=".075"></feGaussianBlur>
      <feComposite in2="hardAlpha" k2="-1" k3="1" operator="arithmetic"></feComposite>
      <feColorMatrix values="0 0 0 0 0.713726 0 0 0 0 0.741176 0 0 0 0 1 0 0 0 1 0"></feColorMatrix>
      <feBlend in2="shape" result="effect1_innerShadow_18_20191"></feBlend>
      <feColorMatrix in="SourceAlpha" result="hardAlpha" values="0 0 0 0 0 0 0 0 0 0 0 0 0 0 0 0 0 0 127 0"></feColorMatrix>
      <feOffset dx="-.25" dy="-.25"></feOffset>
      <feGaussianBlur stdDeviation=".075"></feGaussianBlur>
      <feComposite in2="hardAlpha" k2="-1" k3="1" operator="arithmetic"></feComposite>
      <feColorMatrix values="0 0 0 0 0.713726 0 0 0 0 0.741176 0 0 0 0 1 0 0 0 1 0"></feColorMatrix>
      <feBlend in2="effect1_innerShadow_18_20191" result="effect2_innerShadow_18_20191"></feBlend>
    </filter>
    <filter id="filter5_f_18_20191" width="20.925" height=".55" x="6.904" y="16.819" color-interpolation-filters="sRGB" filterUnits="userSpaceOnUse">
      <feFlood flood-opacity="0" result="BackgroundImageFix"></feFlood>
      <feBlend in="SourceGraphic" in2="BackgroundImageFix" result="shape"></feBlend>
      <feGaussianBlur result="effect1_foregroundBlur_18_20191" stdDeviation=".075"></feGaussianBlur>
    </filter>
    <filter id="filter6_f_18_20191" width="21.098" height=".45" x="6.837" y="12.994" color-interpolation-filters="sRGB" filterUnits="userSpaceOnUse">
      <feFlood flood-opacity="0" result="BackgroundImageFix"></feFlood>
      <feBlend in="SourceGraphic" in2="BackgroundImageFix" result="shape"></feBlend>
      <feGaussianBlur result="effect1_foregroundBlur_18_20191" stdDeviation=".075"></feGaussianBlur>
    </filter>
    <filter id="filter7_ii_18_20191" width="8.428" height="4.136" x="7.831" y="12.733" color-interpolation-filters="sRGB" filterUnits="userSpaceOnUse">
      <feFlood flood-opacity="0" result="BackgroundImageFix"></feFlood>
      <feBlend in="SourceGraphic" in2="BackgroundImageFix" result="shape"></feBlend>
      <feColorMatrix in="SourceAlpha" result="hardAlpha" values="0 0 0 0 0 0 0 0 0 0 0 0 0 0 0 0 0 0 127 0"></feColorMatrix>
      <feOffset dx=".25" dy="-.3"></feOffset>
      <feGaussianBlur stdDeviation=".075"></feGaussianBlur>
      <feComposite in2="hardAlpha" k2="-1" k3="1" operator="arithmetic"></feComposite>
      <feColorMatrix values="0 0 0 0 0.713726 0 0 0 0 0.678431 0 0 0 0 1 0 0 0 1 0"></feColorMatrix>
      <feBlend in2="shape" result="effect1_innerShadow_18_20191"></feBlend>
      <feColorMatrix in="SourceAlpha" result="hardAlpha" values="0 0 0 0 0 0 0 0 0 0 0 0 0 0 0 0 0 0 127 0"></feColorMatrix>
      <feOffset dx="-.25" dy=".3"></feOffset>
      <feGaussianBlur stdDeviation=".075"></feGaussianBlur>
      <feComposite in2="hardAlpha" k2="-1" k3="1" operator="arithmetic"></feComposite>
      <feColorMatrix values="0 0 0 0 0.694118 0 0 0 0 0.721569 0 0 0 0 1 0 0 0 1 0"></feColorMatrix>
      <feBlend in2="effect1_innerShadow_18_20191" result="effect2_innerShadow_18_20191"></feBlend>
    </filter>
    <filter id="filter8_ii_18_20191" width="8.428" height="4.136" x="17.633" y="12.733" color-interpolation-filters="sRGB" filterUnits="userSpaceOnUse">
      <feFlood flood-opacity="0" result="BackgroundImageFix"></feFlood>
      <feBlend in="SourceGraphic" in2="BackgroundImageFix" result="shape"></feBlend>
      <feColorMatrix in="SourceAlpha" result="hardAlpha" values="0 0 0 0 0 0 0 0 0 0 0 0 0 0 0 0 0 0 127 0"></feColorMatrix>
      <feOffset dx=".25" dy="-.3"></feOffset>
      <feGaussianBlur stdDeviation=".075"></feGaussianBlur>
      <feComposite in2="hardAlpha" k2="-1" k3="1" operator="arithmetic"></feComposite>
      <feColorMatrix values="0 0 0 0 0.713726 0 0 0 0 0.678431 0 0 0 0 1 0 0 0 1 0"></feColorMatrix>
      <feBlend in2="shape" result="effect1_innerShadow_18_20191"></feBlend>
      <feColorMatrix in="SourceAlpha" result="hardAlpha" values="0 0 0 0 0 0 0 0 0 0 0 0 0 0 0 0 0 0 127 0"></feColorMatrix>
      <feOffset dx="-.25" dy=".3"></feOffset>
      <feGaussianBlur stdDeviation=".075"></feGaussianBlur>
      <feComposite in2="hardAlpha" k2="-1" k3="1" operator="arithmetic"></feComposite>
      <feColorMatrix values="0 0 0 0 0.694118 0 0 0 0 0.721569 0 0 0 0 1 0 0 0 1 0"></feColorMatrix>
      <feBlend in2="effect1_innerShadow_18_20191" result="effect2_innerShadow_18_20191"></feBlend>
    </filter>
    <filter id="filter9_f_18_20191" width="4.966" height=".45" x="11.001" y="12.994" color-interpolation-filters="sRGB" filterUnits="userSpaceOnUse">
      <feFlood flood-opacity="0" result="BackgroundImageFix"></feFlood>
      <feBlend in="SourceGraphic" in2="BackgroundImageFix" result="shape"></feBlend>
      <feGaussianBlur result="effect1_foregroundBlur_18_20191" stdDeviation=".075"></feGaussianBlur>
    </filter>
    <filter id="filter10_f_18_20191" width="4.966" height=".45" x="20.814" y="12.994" color-interpolation-filters="sRGB" filterUnits="userSpaceOnUse">
      <feFlood flood-opacity="0" result="BackgroundImageFix"></feFlood>
      <feBlend in="SourceGraphic" in2="BackgroundImageFix" result="shape"></feBlend>
      <feGaussianBlur result="effect1_foregroundBlur_18_20191" stdDeviation=".075"></feGaussianBlur>
    </filter>
  </defs>
</svg>
