<svg xmlns="http://www.w3.org/2000/svg" width="32" height="32" fill="none" viewBox="0 0 32 32" id="couch">
  <rect width="2.008" height="1.676" x="22.398" y="28.615" fill="url(#paint0_radial_18_25664)"></rect>
  <rect width="2.008" height="1.676" x="3.461" y="28.615" fill="url(#paint1_radial_18_25664)"></rect>
  <path fill="#447AC9" d="M4.625 18.537C4.625 17.8466 5.18464 17.287 5.875 17.287H12.7031C13.3935 17.287 13.9531 17.8466 13.9531 18.537V25.2714H4.625V18.537Z"></path>
  <path fill="url(#paint2_linear_18_25664)" d="M4.625 18.537C4.625 17.8466 5.18464 17.287 5.875 17.287H12.7031C13.3935 17.287 13.9531 17.8466 13.9531 18.537V25.2714H4.625V18.537Z"></path>
  <path fill="url(#paint3_linear_18_25664)" d="M4.625 18.537C4.625 17.8466 5.18464 17.287 5.875 17.287H12.7031C13.3935 17.287 13.9531 17.8466 13.9531 18.537V25.2714H4.625V18.537Z"></path>
  <path fill="url(#paint4_linear_18_25664)" d="M4.625 18.537C4.625 17.8466 5.18464 17.287 5.875 17.287H12.7031C13.3935 17.287 13.9531 17.8466 13.9531 18.537V25.2714H4.625V18.537Z"></path>
  <path fill="url(#paint5_linear_18_25664)" d="M4.625 18.537C4.625 17.8466 5.18464 17.287 5.875 17.287H12.7031C13.3935 17.287 13.9531 17.8466 13.9531 18.537V25.2714H4.625V18.537Z"></path>
  <path fill="url(#paint6_linear_18_25664)" d="M4.625 18.537C4.625 17.8466 5.18464 17.287 5.875 17.287H12.7031C13.3935 17.287 13.9531 17.8466 13.9531 18.537V25.2714H4.625V18.537Z"></path>
  <path fill="#447AC9" d="M23.2812 18.537C23.2812 17.8466 22.7216 17.287 22.0312 17.287H15.2031C14.5128 17.287 13.9531 17.8466 13.9531 18.537V25.2714H23.2812V18.537Z"></path>
  <path fill="url(#paint7_linear_18_25664)" d="M23.2812 18.537C23.2812 17.8466 22.7216 17.287 22.0312 17.287H15.2031C14.5128 17.287 13.9531 17.8466 13.9531 18.537V25.2714H23.2812V18.537Z"></path>
  <path fill="url(#paint8_linear_18_25664)" d="M23.2812 18.537C23.2812 17.8466 22.7216 17.287 22.0312 17.287H15.2031C14.5128 17.287 13.9531 17.8466 13.9531 18.537V25.2714H23.2812V18.537Z"></path>
  <path fill="url(#paint9_linear_18_25664)" d="M23.2812 18.537C23.2812 17.8466 22.7216 17.287 22.0312 17.287H15.2031C14.5128 17.287 13.9531 17.8466 13.9531 18.537V25.2714H23.2812V18.537Z"></path>
  <path fill="url(#paint10_linear_18_25664)" d="M23.2812 18.537C23.2812 17.8466 22.7216 17.287 22.0312 17.287H15.2031C14.5128 17.287 13.9531 17.8466 13.9531 18.537V25.2714H23.2812V18.537Z"></path>
  <path fill="url(#paint11_linear_18_25664)" d="M23.2812 18.537C23.2812 17.8466 22.7216 17.287 22.0312 17.287H15.2031C14.5128 17.287 13.9531 17.8466 13.9531 18.537V25.2714H23.2812V18.537Z"></path>
  <path fill="url(#paint12_linear_18_25664)" d="M23.2812 18.537C23.2812 17.8466 22.7216 17.287 22.0312 17.287H15.2031C14.5128 17.287 13.9531 17.8466 13.9531 18.537V25.2714H23.2812V18.537Z"></path>
  <path fill="url(#paint13_radial_18_25664)" d="M23.2812 18.537C23.2812 17.8466 22.7216 17.287 22.0312 17.287H15.2031C14.5128 17.287 13.9531 17.8466 13.9531 18.537V25.2714H23.2812V18.537Z"></path>
  <g filter="url(#filter0_i_18_25664)">
    <path fill="#4A7ED9" d="M4.77344 24.6385H23.0938V28.2323C23.0938 28.7846 22.646 29.2323 22.0938 29.2323H5.77344C5.22115 29.2323 4.77344 28.7846 4.77344 28.2323V24.6385Z"></path>
    <path fill="url(#paint14_linear_18_25664)" d="M4.77344 24.6385H23.0938V28.2323C23.0938 28.7846 22.646 29.2323 22.0938 29.2323H5.77344C5.22115 29.2323 4.77344 28.7846 4.77344 28.2323V24.6385Z"></path>
  </g>
  <g filter="url(#filter1_ii_18_25664)">
    <path stroke="#CBC9CC" stroke-width=".9" d="M21.8594 9.14636V5.34167C21.8594 3.96096 22.9787 2.84167 24.3594 2.84167H25.3398C26.7206 2.84167 27.8398 3.96096 27.8398 5.34167V28.9276"></path>
  </g>
  <path stroke="url(#paint15_radial_18_25664)" stroke-width=".9" d="M21.8594 9.14636V5.34167C21.8594 3.96096 22.9787 2.84167 24.3594 2.84167H25.3398C26.7206 2.84167 27.8398 3.96096 27.8398 5.34167V28.9276"></path>
  <g filter="url(#filter2_f_18_25664)">
    <path stroke="url(#paint16_radial_18_25664)" stroke-width=".3" d="M21.8594 9.14636V5.34167C21.8594 3.96096 22.994 2.84167 24.3937 2.84167H25.3876C26.7872 2.84167 27.9219 3.96096 27.9219 5.34167V28.9276"></path>
    <path stroke="url(#paint17_linear_18_25664)" stroke-width=".3" d="M21.8594 9.14636V5.34167C21.8594 3.96096 22.994 2.84167 24.3937 2.84167H25.3876C26.7872 2.84167 27.9219 3.96096 27.9219 5.34167V28.9276"></path>
  </g>
  <g filter="url(#filter3_ii_18_25664)">
    <path fill="#307ACE" d="M2.4375 22.2714C2.4375 21.3308 3.20002 20.5682 4.14062 20.5682C5.08123 20.5682 5.84375 21.3308 5.84375 22.2714V28.2323C5.84375 28.7846 5.39603 29.2323 4.84375 29.2323H3.4375C2.88522 29.2323 2.4375 28.7846 2.4375 28.2323V22.2714Z"></path>
  </g>
  <g filter="url(#filter4_i_18_25664)">
    <path fill="url(#paint18_linear_18_25664)" d="M21.8672 6.31824C19.9385 6.31824 18.375 7.88174 18.375 9.81042V12.5682C18.375 12.9825 18.7108 13.3182 19.125 13.3182H24.6094C25.0236 13.3182 25.3594 12.9825 25.3594 12.5682V9.81042C25.3594 7.88174 23.7959 6.31824 21.8672 6.31824Z"></path>
    <path fill="url(#paint19_linear_18_25664)" d="M21.8672 6.31824C19.9385 6.31824 18.375 7.88174 18.375 9.81042V12.5682C18.375 12.9825 18.7108 13.3182 19.125 13.3182H24.6094C25.0236 13.3182 25.3594 12.9825 25.3594 12.5682V9.81042C25.3594 7.88174 23.7959 6.31824 21.8672 6.31824Z"></path>
    <path fill="url(#paint20_radial_18_25664)" d="M21.8672 6.31824C19.9385 6.31824 18.375 7.88174 18.375 9.81042V12.5682C18.375 12.9825 18.7108 13.3182 19.125 13.3182H24.6094C25.0236 13.3182 25.3594 12.9825 25.3594 12.5682V9.81042C25.3594 7.88174 23.7959 6.31824 21.8672 6.31824Z"></path>
  </g>
  <path fill="url(#paint21_radial_18_25664)" d="M25.3487 29.7831C25.2912 30.0578 25.5214 30.2909 25.8021 30.2909H29.9205C30.2012 30.2909 30.4314 30.0578 30.3738 29.7831C30.1192 28.5703 29.0765 27.662 27.8593 27.662C26.6421 27.662 25.6025 28.5703 25.3487 29.7831Z"></path>
  <path fill="url(#paint22_radial_18_25664)" d="M25.3487 29.7831C25.2912 30.0578 25.5214 30.2909 25.8021 30.2909H29.9205C30.2012 30.2909 30.4314 30.0578 30.3738 29.7831C30.1192 28.5703 29.0765 27.662 27.8593 27.662C26.6421 27.662 25.6025 28.5703 25.3487 29.7831Z"></path>
  <path fill="url(#paint23_linear_18_25664)" d="M25.3487 29.7831C25.2912 30.0578 25.5214 30.2909 25.8021 30.2909H29.9205C30.2012 30.2909 30.4314 30.0578 30.3738 29.7831C30.1192 28.5703 29.0765 27.662 27.8593 27.662C26.6421 27.662 25.6025 28.5703 25.3487 29.7831Z"></path>
  <path fill="url(#paint24_radial_18_25664)" d="M25.3487 29.7831C25.2912 30.0578 25.5214 30.2909 25.8021 30.2909H29.9205C30.2012 30.2909 30.4314 30.0578 30.3738 29.7831C30.1192 28.5703 29.0765 27.662 27.8593 27.662C26.6421 27.662 25.6025 28.5703 25.3487 29.7831Z"></path>
  <g filter="url(#filter5_f_18_25664)">
    <path stroke="url(#paint25_linear_18_25664)" stroke-linecap="round" d="M6.21875 18.3964H12.5625C12.7006 18.3964 12.8125 18.5083 12.8125 18.6464V24.1932"></path>
  </g>
  <g filter="url(#filter6_f_18_25664)">
    <path stroke="url(#paint26_linear_18_25664)" stroke-linecap="round" d="M15.5781 18.3807H21.9219C22.0599 18.3807 22.1719 18.4927 22.1719 18.6307V24.1776"></path>
  </g>
  <g filter="url(#filter7_ii_18_25664)">
    <path fill="#307ACE" d="M21.8672 22.2714C21.8672 21.3308 22.6297 20.5682 23.5703 20.5682C24.5109 20.5682 25.2734 21.3308 25.2734 22.2714V28.2323C25.2734 28.7846 24.8257 29.2323 24.2734 29.2323H22.8672C22.3149 29.2323 21.8672 28.7846 21.8672 28.2323V22.2714Z"></path>
  </g>
  <g filter="url(#filter8_f_18_25664)">
    <rect width="15.641" height=".438" x="6.219" y="25.271" fill="#4D83D2"></rect>
  </g>
  <g filter="url(#filter9_f_18_25664)">
    <path fill="url(#paint27_linear_18_25664)" d="M4.09375 21.9589C4.09375 21.6655 4.3316 21.4276 4.625 21.4276V21.4276C4.9184 21.4276 5.15625 21.6655 5.15625 21.9589V28.1151H4.09375V21.9589Z"></path>
  </g>
  <g filter="url(#filter10_f_18_25664)">
    <path fill="url(#paint28_linear_18_25664)" d="M23.5703 21.9589C23.5703 21.6655 23.8082 21.4276 24.1016 21.4276V21.4276C24.395 21.4276 24.6328 21.6655 24.6328 21.9589V28.1151H23.5703V21.9589Z"></path>
  </g>
  <defs>
    <linearGradient id="paint2_linear_18_25664" x1="9.289" x2="9.289" y1="17.287" y2="19.146" gradientUnits="userSpaceOnUse">
      <stop offset=".032" stop-color="#3B77BB"></stop>
      <stop offset="1" stop-color="#3B77BB" stop-opacity="0"></stop>
    </linearGradient>
    <linearGradient id="paint3_linear_18_25664" x1="4.625" x2="6.5" y1="20.365" y2="20.365" gradientUnits="userSpaceOnUse">
      <stop stop-color="#3261A8"></stop>
      <stop offset="1" stop-color="#3261A8" stop-opacity="0"></stop>
    </linearGradient>
    <linearGradient id="paint4_linear_18_25664" x1="7.25" x2="7.25" y1="24.896" y2="23.834" gradientUnits="userSpaceOnUse">
      <stop stop-color="#3261A8"></stop>
      <stop offset="1" stop-color="#457BCA" stop-opacity="0"></stop>
    </linearGradient>
    <linearGradient id="paint5_linear_18_25664" x1="14.375" x2="12.531" y1="24.521" y2="24.521" gradientUnits="userSpaceOnUse">
      <stop stop-color="#1859A4"></stop>
      <stop offset="1" stop-color="#1859A4" stop-opacity="0"></stop>
    </linearGradient>
    <linearGradient id="paint6_linear_18_25664" x1="14.023" x2="13.508" y1="22.584" y2="22.584" gradientUnits="userSpaceOnUse">
      <stop stop-color="#022F89"></stop>
      <stop offset="1" stop-color="#2A67B4" stop-opacity="0"></stop>
    </linearGradient>
    <linearGradient id="paint7_linear_18_25664" x1="18.617" x2="18.617" y1="17.287" y2="19.146" gradientUnits="userSpaceOnUse">
      <stop offset=".032" stop-color="#3B77BB"></stop>
      <stop offset="1" stop-color="#3B77BB" stop-opacity="0"></stop>
    </linearGradient>
    <linearGradient id="paint8_linear_18_25664" x1="23.281" x2="21.406" y1="20.365" y2="20.365" gradientUnits="userSpaceOnUse">
      <stop stop-color="#3261A8"></stop>
      <stop offset="1" stop-color="#3261A8" stop-opacity="0"></stop>
    </linearGradient>
    <linearGradient id="paint9_linear_18_25664" x1="20.656" x2="20.656" y1="24.896" y2="23.834" gradientUnits="userSpaceOnUse">
      <stop stop-color="#3261A8"></stop>
      <stop offset="1" stop-color="#457BCA" stop-opacity="0"></stop>
    </linearGradient>
    <linearGradient id="paint10_linear_18_25664" x1="13.531" x2="15.375" y1="24.521" y2="24.521" gradientUnits="userSpaceOnUse">
      <stop stop-color="#1859A4"></stop>
      <stop offset="1" stop-color="#1859A4" stop-opacity="0"></stop>
    </linearGradient>
    <linearGradient id="paint11_linear_18_25664" x1="13.883" x2="14.398" y1="22.584" y2="22.584" gradientUnits="userSpaceOnUse">
      <stop stop-color="#022F89"></stop>
      <stop offset="1" stop-color="#2A67B4" stop-opacity="0"></stop>
    </linearGradient>
    <linearGradient id="paint12_linear_18_25664" x1="23.281" x2="19.5" y1="26.084" y2="23.084" gradientUnits="userSpaceOnUse">
      <stop offset=".331" stop-color="#163883"></stop>
      <stop offset="1" stop-color="#2A5AA1" stop-opacity="0"></stop>
    </linearGradient>
    <linearGradient id="paint14_linear_18_25664" x1="13.934" x2="13.934" y1="24.639" y2="25.709" gradientUnits="userSpaceOnUse">
      <stop offset=".241" stop-color="#397AC5"></stop>
      <stop offset="1" stop-color="#397AC5" stop-opacity="0"></stop>
    </linearGradient>
    <linearGradient id="paint17_linear_18_25664" x1="27.922" x2="27.922" y1="27.74" y2="16.803" gradientUnits="userSpaceOnUse">
      <stop stop-color="#C5C0C3"></stop>
      <stop offset="1" stop-color="#C5C0C3" stop-opacity="0"></stop>
    </linearGradient>
    <linearGradient id="paint18_linear_18_25664" x1="18.207" x2="24.912" y1="11.106" y2="11.106" gradientUnits="userSpaceOnUse">
      <stop offset=".253" stop-color="#F89B2F"></stop>
      <stop offset=".789" stop-color="#FFDB4E"></stop>
    </linearGradient>
    <linearGradient id="paint19_linear_18_25664" x1="23.406" x2="23.406" y1="13.318" y2="12.85" gradientUnits="userSpaceOnUse">
      <stop stop-color="#AA665B"></stop>
      <stop offset="1" stop-color="#EB9434" stop-opacity="0"></stop>
    </linearGradient>
    <linearGradient id="paint23_linear_18_25664" x1="28.813" x2="28.813" y1="30.291" y2="29.928" gradientUnits="userSpaceOnUse">
      <stop stop-color="#E68945"></stop>
      <stop offset="1" stop-color="#E68945" stop-opacity="0"></stop>
    </linearGradient>
    <linearGradient id="paint25_linear_18_25664" x1="13.938" x2="6.659" y1="22.615" y2="22.749" gradientUnits="userSpaceOnUse">
      <stop stop-color="#5284C7"></stop>
      <stop offset="1" stop-color="#5284C7" stop-opacity="0"></stop>
    </linearGradient>
    <linearGradient id="paint26_linear_18_25664" x1="22.758" x2="20.985" y1="18.099" y2="21.945" gradientUnits="userSpaceOnUse">
      <stop stop-color="#5284C7"></stop>
      <stop offset="1" stop-color="#5284C7" stop-opacity="0"></stop>
    </linearGradient>
    <linearGradient id="paint27_linear_18_25664" x1="4.625" x2="4.625" y1="21.428" y2="27.709" gradientUnits="userSpaceOnUse">
      <stop stop-color="#5C92DB"></stop>
      <stop offset="1" stop-color="#5487DD"></stop>
    </linearGradient>
    <linearGradient id="paint28_linear_18_25664" x1="24.102" x2="24.102" y1="21.428" y2="27.709" gradientUnits="userSpaceOnUse">
      <stop stop-color="#5C92DB"></stop>
      <stop offset="1" stop-color="#5487DD"></stop>
    </linearGradient>
    <filter id="filter0_i_18_25664" width="19.32" height="5.094" x="3.773" y="24.139" color-interpolation-filters="sRGB" filterUnits="userSpaceOnUse">
      <feFlood flood-opacity="0" result="BackgroundImageFix"></feFlood>
      <feBlend in="SourceGraphic" in2="BackgroundImageFix" result="shape"></feBlend>
      <feColorMatrix in="SourceAlpha" result="hardAlpha" values="0 0 0 0 0 0 0 0 0 0 0 0 0 0 0 0 0 0 127 0"></feColorMatrix>
      <feOffset dx="-1" dy="-.5"></feOffset>
      <feGaussianBlur stdDeviation=".5"></feGaussianBlur>
      <feComposite in2="hardAlpha" k2="-1" k3="1" operator="arithmetic"></feComposite>
      <feColorMatrix values="0 0 0 0 0.215686 0 0 0 0 0.32549 0 0 0 0 0.768627 0 0 0 1 0"></feColorMatrix>
      <feBlend in2="shape" result="effect1_innerShadow_18_25664"></feBlend>
    </filter>
    <filter id="filter1_ii_18_25664" width="7.18" height="26.736" x="21.409" y="2.192" color-interpolation-filters="sRGB" filterUnits="userSpaceOnUse">
      <feFlood flood-opacity="0" result="BackgroundImageFix"></feFlood>
      <feBlend in="SourceGraphic" in2="BackgroundImageFix" result="shape"></feBlend>
      <feColorMatrix in="SourceAlpha" result="hardAlpha" values="0 0 0 0 0 0 0 0 0 0 0 0 0 0 0 0 0 0 127 0"></feColorMatrix>
      <feOffset dx=".3" dy="-.2"></feOffset>
      <feGaussianBlur stdDeviation=".225"></feGaussianBlur>
      <feComposite in2="hardAlpha" k2="-1" k3="1" operator="arithmetic"></feComposite>
      <feColorMatrix values="0 0 0 0 0.666667 0 0 0 0 0.662745 0 0 0 0 0.666667 0 0 0 1 0"></feColorMatrix>
      <feBlend in2="shape" result="effect1_innerShadow_18_25664"></feBlend>
      <feColorMatrix in="SourceAlpha" result="hardAlpha" values="0 0 0 0 0 0 0 0 0 0 0 0 0 0 0 0 0 0 127 0"></feColorMatrix>
      <feOffset dy="-.2"></feOffset>
      <feGaussianBlur stdDeviation=".225"></feGaussianBlur>
      <feComposite in2="hardAlpha" k2="-1" k3="1" operator="arithmetic"></feComposite>
      <feColorMatrix values="0 0 0 0 0.6 0 0 0 0 0.521569 0 0 0 0 0.596078 0 0 0 1 0"></feColorMatrix>
      <feBlend in2="effect1_innerShadow_18_25664" result="effect2_innerShadow_18_25664"></feBlend>
    </filter>
    <filter id="filter2_f_18_25664" width="6.963" height="26.836" x="21.409" y="2.392" color-interpolation-filters="sRGB" filterUnits="userSpaceOnUse">
      <feFlood flood-opacity="0" result="BackgroundImageFix"></feFlood>
      <feBlend in="SourceGraphic" in2="BackgroundImageFix" result="shape"></feBlend>
      <feGaussianBlur result="effect1_foregroundBlur_18_25664" stdDeviation=".15"></feGaussianBlur>
    </filter>
    <filter id="filter3_ii_18_25664" width="4.406" height="9.414" x="2.438" y="19.818" color-interpolation-filters="sRGB" filterUnits="userSpaceOnUse">
      <feFlood flood-opacity="0" result="BackgroundImageFix"></feFlood>
      <feBlend in="SourceGraphic" in2="BackgroundImageFix" result="shape"></feBlend>
      <feColorMatrix in="SourceAlpha" result="hardAlpha" values="0 0 0 0 0 0 0 0 0 0 0 0 0 0 0 0 0 0 127 0"></feColorMatrix>
      <feOffset dx="1" dy="-.75"></feOffset>
      <feGaussianBlur stdDeviation=".625"></feGaussianBlur>
      <feComposite in2="hardAlpha" k2="-1" k3="1" operator="arithmetic"></feComposite>
      <feColorMatrix values="0 0 0 0 0.203922 0 0 0 0 0.380392 0 0 0 0 0.745098 0 0 0 1 0"></feColorMatrix>
      <feBlend in2="shape" result="effect1_innerShadow_18_25664"></feBlend>
      <feColorMatrix in="SourceAlpha" result="hardAlpha" values="0 0 0 0 0 0 0 0 0 0 0 0 0 0 0 0 0 0 127 0"></feColorMatrix>
      <feOffset dy="-.5"></feOffset>
      <feGaussianBlur stdDeviation=".625"></feGaussianBlur>
      <feComposite in2="hardAlpha" k2="-1" k3="1" operator="arithmetic"></feComposite>
      <feColorMatrix values="0 0 0 0 0.235294 0 0 0 0 0.305882 0 0 0 0 0.733333 0 0 0 1 0"></feColorMatrix>
      <feBlend in2="effect1_innerShadow_18_25664" result="effect2_innerShadow_18_25664"></feBlend>
    </filter>
    <filter id="filter4_i_18_25664" width="7.484" height="7" x="18.375" y="6.318" color-interpolation-filters="sRGB" filterUnits="userSpaceOnUse">
      <feFlood flood-opacity="0" result="BackgroundImageFix"></feFlood>
      <feBlend in="SourceGraphic" in2="BackgroundImageFix" result="shape"></feBlend>
      <feColorMatrix in="SourceAlpha" result="hardAlpha" values="0 0 0 0 0 0 0 0 0 0 0 0 0 0 0 0 0 0 127 0"></feColorMatrix>
      <feOffset dx=".5"></feOffset>
      <feGaussianBlur stdDeviation=".75"></feGaussianBlur>
      <feComposite in2="hardAlpha" k2="-1" k3="1" operator="arithmetic"></feComposite>
      <feColorMatrix values="0 0 0 0 0.815686 0 0 0 0 0.560784 0 0 0 0 0.384314 0 0 0 1 0"></feColorMatrix>
      <feBlend in2="shape" result="effect1_innerShadow_18_25664"></feBlend>
    </filter>
    <filter id="filter5_f_18_25664" width="8.594" height="7.797" x="5.219" y="17.396" color-interpolation-filters="sRGB" filterUnits="userSpaceOnUse">
      <feFlood flood-opacity="0" result="BackgroundImageFix"></feFlood>
      <feBlend in="SourceGraphic" in2="BackgroundImageFix" result="shape"></feBlend>
      <feGaussianBlur result="effect1_foregroundBlur_18_25664" stdDeviation=".25"></feGaussianBlur>
    </filter>
    <filter id="filter6_f_18_25664" width="8.594" height="7.797" x="14.578" y="17.381" color-interpolation-filters="sRGB" filterUnits="userSpaceOnUse">
      <feFlood flood-opacity="0" result="BackgroundImageFix"></feFlood>
      <feBlend in="SourceGraphic" in2="BackgroundImageFix" result="shape"></feBlend>
      <feGaussianBlur result="effect1_foregroundBlur_18_25664" stdDeviation=".25"></feGaussianBlur>
    </filter>
    <filter id="filter7_ii_18_25664" width="4.406" height="9.414" x="21.867" y="19.818" color-interpolation-filters="sRGB" filterUnits="userSpaceOnUse">
      <feFlood flood-opacity="0" result="BackgroundImageFix"></feFlood>
      <feBlend in="SourceGraphic" in2="BackgroundImageFix" result="shape"></feBlend>
      <feColorMatrix in="SourceAlpha" result="hardAlpha" values="0 0 0 0 0 0 0 0 0 0 0 0 0 0 0 0 0 0 127 0"></feColorMatrix>
      <feOffset dx="1" dy="-.75"></feOffset>
      <feGaussianBlur stdDeviation=".625"></feGaussianBlur>
      <feComposite in2="hardAlpha" k2="-1" k3="1" operator="arithmetic"></feComposite>
      <feColorMatrix values="0 0 0 0 0.203922 0 0 0 0 0.380392 0 0 0 0 0.745098 0 0 0 1 0"></feColorMatrix>
      <feBlend in2="shape" result="effect1_innerShadow_18_25664"></feBlend>
      <feColorMatrix in="SourceAlpha" result="hardAlpha" values="0 0 0 0 0 0 0 0 0 0 0 0 0 0 0 0 0 0 127 0"></feColorMatrix>
      <feOffset dy="-.5"></feOffset>
      <feGaussianBlur stdDeviation=".625"></feGaussianBlur>
      <feComposite in2="hardAlpha" k2="-1" k3="1" operator="arithmetic"></feComposite>
      <feColorMatrix values="0 0 0 0 0.235294 0 0 0 0 0.305882 0 0 0 0 0.733333 0 0 0 1 0"></feColorMatrix>
      <feBlend in2="effect1_innerShadow_18_25664" result="effect2_innerShadow_18_25664"></feBlend>
    </filter>
    <filter id="filter8_f_18_25664" width="16.641" height="1.438" x="5.719" y="24.771" color-interpolation-filters="sRGB" filterUnits="userSpaceOnUse">
      <feFlood flood-opacity="0" result="BackgroundImageFix"></feFlood>
      <feBlend in="SourceGraphic" in2="BackgroundImageFix" result="shape"></feBlend>
      <feGaussianBlur result="effect1_foregroundBlur_18_25664" stdDeviation=".25"></feGaussianBlur>
    </filter>
    <filter id="filter9_f_18_25664" width="2.563" height="8.188" x="3.344" y="20.678" color-interpolation-filters="sRGB" filterUnits="userSpaceOnUse">
      <feFlood flood-opacity="0" result="BackgroundImageFix"></feFlood>
      <feBlend in="SourceGraphic" in2="BackgroundImageFix" result="shape"></feBlend>
      <feGaussianBlur result="effect1_foregroundBlur_18_25664" stdDeviation=".375"></feGaussianBlur>
    </filter>
    <filter id="filter10_f_18_25664" width="2.563" height="8.188" x="22.82" y="20.678" color-interpolation-filters="sRGB" filterUnits="userSpaceOnUse">
      <feFlood flood-opacity="0" result="BackgroundImageFix"></feFlood>
      <feBlend in="SourceGraphic" in2="BackgroundImageFix" result="shape"></feBlend>
      <feGaussianBlur result="effect1_foregroundBlur_18_25664" stdDeviation=".375"></feGaussianBlur>
    </filter>
    <radialGradient id="paint0_radial_18_25664" cx="0" cy="0" r="1" gradientTransform="matrix(0 -1.50391 1.80188 0 24.016 30.29)" gradientUnits="userSpaceOnUse">
      <stop stop-color="#978BFF"></stop>
      <stop offset="1" stop-color="#7F72FF"></stop>
    </radialGradient>
    <radialGradient id="paint1_radial_18_25664" cx="0" cy="0" r="1" gradientTransform="matrix(0 -1.50391 1.80188 0 5.078 30.29)" gradientUnits="userSpaceOnUse">
      <stop stop-color="#978BFF"></stop>
      <stop offset="1" stop-color="#7F72FF"></stop>
    </radialGradient>
    <radialGradient id="paint13_radial_18_25664" cx="0" cy="0" r="1" gradientTransform="rotate(131.934 7.53 13.991)scale(1.23921 1.1939)" gradientUnits="userSpaceOnUse">
      <stop stop-color="#5289C9"></stop>
      <stop offset="1" stop-color="#5289C9" stop-opacity="0"></stop>
    </radialGradient>
    <radialGradient id="paint15_radial_18_25664" cx="0" cy="0" r="1" gradientTransform="matrix(0 -11.7907 .46968 0 27.228 27.367)" gradientUnits="userSpaceOnUse">
      <stop stop-color="#667295"></stop>
      <stop offset="1" stop-color="#667295" stop-opacity="0"></stop>
    </radialGradient>
    <radialGradient id="paint16_radial_18_25664" cx="0" cy="0" r="1" gradientTransform="rotate(108.091 12.707 11.856)scale(6.31206 7.38492)" gradientUnits="userSpaceOnUse">
      <stop offset=".11" stop-color="#DDDBDE"></stop>
      <stop offset="1" stop-color="#DDDBDE" stop-opacity="0"></stop>
    </radialGradient>
    <radialGradient id="paint20_radial_18_25664" cx="0" cy="0" r="1" gradientTransform="rotate(93.814 7.862 15.023)scale(2.34895 4.07743)" gradientUnits="userSpaceOnUse">
      <stop stop-color="#FFE96C"></stop>
      <stop offset="1" stop-color="#FFD64C" stop-opacity="0"></stop>
    </radialGradient>
    <radialGradient id="paint21_radial_18_25664" cx="0" cy="0" r="1" gradientTransform="matrix(-3.3125 0 0 -3.28621 29.844 29.584)" gradientUnits="userSpaceOnUse">
      <stop stop-color="#FFE258"></stop>
      <stop offset="1" stop-color="#FFAF33"></stop>
    </radialGradient>
    <radialGradient id="paint22_radial_18_25664" cx="0" cy="0" r="1" gradientTransform="matrix(0 -1.0918 1.28125 0 29.297 30.068)" gradientUnits="userSpaceOnUse">
      <stop stop-color="#FFD96D"></stop>
      <stop offset="1" stop-color="#FFD96D" stop-opacity="0"></stop>
    </radialGradient>
    <radialGradient id="paint24_radial_18_25664" cx="0" cy="0" r="1" gradientTransform="rotate(-164.204 16.484 12.98)scale(3.60895)" gradientUnits="userSpaceOnUse">
      <stop offset=".615" stop-color="#D2852C" stop-opacity="0"></stop>
      <stop offset=".981" stop-color="#884B45"></stop>
    </radialGradient>
  </defs>
</svg>
