<svg xmlns="http://www.w3.org/2000/svg" width="32" height="32" fill="none" viewBox="0 0 32 32" id="crescent">
  <g filter="url(#filter0_i_18_14563)">
    <path fill="url(#paint0_linear_18_14563)" d="M23.5095 5.63236C24.0095 7.67236 24.0695 9.89236 23.5295 12.1924C22.2695 17.5224 17.8895 21.7024 12.5095 22.6724C9.5995 23.2024 6.8295 22.8024 4.4195 21.7524C3.8595 21.5024 3.3295 22.1424 3.6195 22.6824C6.2695 27.5624 11.7295 30.6824 17.8395 29.8724C24.0695 29.0424 29.0595 23.9624 29.8095 17.7224C30.4095 12.5424 28.2095 7.86236 24.5295 4.97236C24.0595 4.61236 23.3695 5.05236 23.5095 5.63236Z"></path>
    <path fill="url(#paint1_radial_18_14563)" d="M23.5095 5.63236C24.0095 7.67236 24.0695 9.89236 23.5295 12.1924C22.2695 17.5224 17.8895 21.7024 12.5095 22.6724C9.5995 23.2024 6.8295 22.8024 4.4195 21.7524C3.8595 21.5024 3.3295 22.1424 3.6195 22.6824C6.2695 27.5624 11.7295 30.6824 17.8395 29.8724C24.0695 29.0424 29.0595 23.9624 29.8095 17.7224C30.4095 12.5424 28.2095 7.86236 24.5295 4.97236C24.0595 4.61236 23.3695 5.05236 23.5095 5.63236Z"></path>
    <path fill="url(#paint2_radial_18_14563)" d="M23.5095 5.63236C24.0095 7.67236 24.0695 9.89236 23.5295 12.1924C22.2695 17.5224 17.8895 21.7024 12.5095 22.6724C9.5995 23.2024 6.8295 22.8024 4.4195 21.7524C3.8595 21.5024 3.3295 22.1424 3.6195 22.6824C6.2695 27.5624 11.7295 30.6824 17.8395 29.8724C24.0695 29.0424 29.0595 23.9624 29.8095 17.7224C30.4095 12.5424 28.2095 7.86236 24.5295 4.97236C24.0595 4.61236 23.3695 5.05236 23.5095 5.63236Z"></path>
  </g>
  <path fill="url(#paint3_radial_18_14563)" d="M23.5095 5.63236C24.0095 7.67236 24.0695 9.89236 23.5295 12.1924C22.2695 17.5224 17.8895 21.7024 12.5095 22.6724C9.5995 23.2024 6.8295 22.8024 4.4195 21.7524C3.8595 21.5024 3.3295 22.1424 3.6195 22.6824C6.2695 27.5624 11.7295 30.6824 17.8395 29.8724C24.0695 29.0424 29.0595 23.9624 29.8095 17.7224C30.4095 12.5424 28.2095 7.86236 24.5295 4.97236C24.0595 4.61236 23.3695 5.05236 23.5095 5.63236Z"></path>
  <g filter="url(#filter1_f_18_14563)">
    <path stroke="url(#paint4_linear_18_14563)" stroke-width=".3" d="M13.4795 27.0123C14.3466 27.0123 15.0495 26.3094 15.0495 25.4423C15.0495 24.5752 14.3466 23.8723 13.4795 23.8723C12.6124 23.8723 11.9095 24.5752 11.9095 25.4423C11.9095 26.3094 12.6124 27.0123 13.4795 27.0123Z"></path>
  </g>
  <g filter="url(#filter2_ii_18_14563)">
    <path fill="url(#paint5_radial_18_14563)" d="M13.4795 27.0123C14.3466 27.0123 15.0495 26.3094 15.0495 25.4423C15.0495 24.5752 14.3466 23.8723 13.4795 23.8723C12.6124 23.8723 11.9095 24.5752 11.9095 25.4423C11.9095 26.3094 12.6124 27.0123 13.4795 27.0123Z"></path>
  </g>
  <g filter="url(#filter3_f_18_14563)">
    <path stroke="url(#paint6_linear_18_14563)" stroke-width=".2" d="M26.3995 14.1323C27.2666 14.1323 27.9695 13.4294 27.9695 12.5623C27.9695 11.6952 27.2666 10.9923 26.3995 10.9923C25.5324 10.9923 24.8295 11.6952 24.8295 12.5623C24.8295 13.4294 25.5324 14.1323 26.3995 14.1323Z"></path>
  </g>
  <g filter="url(#filter4_ii_18_14563)">
    <path fill="url(#paint7_radial_18_14563)" d="M26.3995 14.1323C27.2666 14.1323 27.9695 13.4294 27.9695 12.5623C27.9695 11.6952 27.2666 10.9923 26.3995 10.9923C25.5324 10.9923 24.8295 11.6952 24.8295 12.5623C24.8295 13.4294 25.5324 14.1323 26.3995 14.1323Z"></path>
  </g>
  <g filter="url(#filter5_f_18_14563)">
    <path stroke="url(#paint8_linear_18_14563)" stroke-width=".2" d="M26.8995 18.9723C27.4462 18.9723 27.8895 18.5291 27.8895 17.9823C27.8895 17.4355 27.4462 16.9923 26.8995 16.9923C26.3527 16.9923 25.9095 17.4355 25.9095 17.9823C25.9095 18.5291 26.3527 18.9723 26.8995 18.9723Z"></path>
  </g>
  <g filter="url(#filter6_ii_18_14563)">
    <path fill="url(#paint9_radial_18_14563)" d="M26.8995 18.9723C27.4462 18.9723 27.8895 18.5291 27.8895 17.9823C27.8895 17.4355 27.4462 16.9923 26.8995 16.9923C26.3527 16.9923 25.9095 17.4355 25.9095 17.9823C25.9095 18.5291 26.3527 18.9723 26.8995 18.9723Z"></path>
  </g>
  <g filter="url(#filter7_f_18_14563)">
    <path stroke="url(#paint10_linear_18_14563)" stroke-width=".3" d="M21.8995 24.9823C23.5563 24.9823 24.8995 23.6392 24.8995 21.9823C24.8995 20.3254 23.5563 18.9823 21.8995 18.9823C20.2426 18.9823 18.8995 20.3254 18.8995 21.9823C18.8995 23.6392 20.2426 24.9823 21.8995 24.9823Z"></path>
  </g>
  <g filter="url(#filter8_ii_18_14563)">
    <path fill="url(#paint11_radial_18_14563)" d="M21.8995 24.9823C23.5563 24.9823 24.8995 23.6392 24.8995 21.9823C24.8995 20.3254 23.5563 18.9823 21.8995 18.9823C20.2426 18.9823 18.8995 20.3254 18.8995 21.9823C18.8995 23.6392 20.2426 24.9823 21.8995 24.9823Z"></path>
  </g>
  <defs>
    <filter id="filter0_i_18_14563" width="26.87" height="25.658" x="3.538" y="4.342" color-interpolation-filters="sRGB" filterUnits="userSpaceOnUse">
      <feFlood flood-opacity="0" result="BackgroundImageFix"></feFlood>
      <feBlend in="SourceGraphic" in2="BackgroundImageFix" result="shape"></feBlend>
      <feColorMatrix in="SourceAlpha" result="hardAlpha" values="0 0 0 0 0 0 0 0 0 0 0 0 0 0 0 0 0 0 127 0"></feColorMatrix>
      <feOffset dx=".5" dy="-.5"></feOffset>
      <feGaussianBlur stdDeviation=".5"></feGaussianBlur>
      <feComposite in2="hardAlpha" k2="-1" k3="1" operator="arithmetic"></feComposite>
      <feColorMatrix values="0 0 0 0 0.721569 0 0 0 0 0.372549 0 0 0 0 0.356863 0 0 0 1 0"></feColorMatrix>
      <feBlend in2="shape" result="effect1_innerShadow_18_14563"></feBlend>
    </filter>
    <filter id="filter1_f_18_14563" width="4.04" height="4.04" x="11.46" y="23.422" color-interpolation-filters="sRGB" filterUnits="userSpaceOnUse">
      <feFlood flood-opacity="0" result="BackgroundImageFix"></feFlood>
      <feBlend in="SourceGraphic" in2="BackgroundImageFix" result="shape"></feBlend>
      <feGaussianBlur result="effect1_foregroundBlur_18_14563" stdDeviation=".15"></feGaussianBlur>
    </filter>
    <filter id="filter2_ii_18_14563" width="3.69" height="3.79" x="11.659" y="23.472" color-interpolation-filters="sRGB" filterUnits="userSpaceOnUse">
      <feFlood flood-opacity="0" result="BackgroundImageFix"></feFlood>
      <feBlend in="SourceGraphic" in2="BackgroundImageFix" result="shape"></feBlend>
      <feColorMatrix in="SourceAlpha" result="hardAlpha" values="0 0 0 0 0 0 0 0 0 0 0 0 0 0 0 0 0 0 127 0"></feColorMatrix>
      <feOffset dx="-.25" dy=".25"></feOffset>
      <feGaussianBlur stdDeviation=".375"></feGaussianBlur>
      <feComposite in2="hardAlpha" k2="-1" k3="1" operator="arithmetic"></feComposite>
      <feColorMatrix values="0 0 0 0 0.780392 0 0 0 0 0.462745 0 0 0 0 0.254902 0 0 0 1 0"></feColorMatrix>
      <feBlend in2="shape" result="effect1_innerShadow_18_14563"></feBlend>
      <feColorMatrix in="SourceAlpha" result="hardAlpha" values="0 0 0 0 0 0 0 0 0 0 0 0 0 0 0 0 0 0 127 0"></feColorMatrix>
      <feOffset dx=".3" dy="-.4"></feOffset>
      <feGaussianBlur stdDeviation=".5"></feGaussianBlur>
      <feComposite in2="hardAlpha" k2="-1" k3="1" operator="arithmetic"></feComposite>
      <feColorMatrix values="0 0 0 0 1 0 0 0 0 0.839216 0 0 0 0 0.513726 0 0 0 1 0"></feColorMatrix>
      <feBlend in2="effect1_innerShadow_18_14563" result="effect2_innerShadow_18_14563"></feBlend>
    </filter>
    <filter id="filter3_f_18_14563" width="3.74" height="3.74" x="24.53" y="10.692" color-interpolation-filters="sRGB" filterUnits="userSpaceOnUse">
      <feFlood flood-opacity="0" result="BackgroundImageFix"></feFlood>
      <feBlend in="SourceGraphic" in2="BackgroundImageFix" result="shape"></feBlend>
      <feGaussianBlur result="effect1_foregroundBlur_18_14563" stdDeviation=".1"></feGaussianBlur>
    </filter>
    <filter id="filter4_ii_18_14563" width="3.69" height="3.69" x="24.579" y="10.692" color-interpolation-filters="sRGB" filterUnits="userSpaceOnUse">
      <feFlood flood-opacity="0" result="BackgroundImageFix"></feFlood>
      <feBlend in="SourceGraphic" in2="BackgroundImageFix" result="shape"></feBlend>
      <feColorMatrix in="SourceAlpha" result="hardAlpha" values="0 0 0 0 0 0 0 0 0 0 0 0 0 0 0 0 0 0 127 0"></feColorMatrix>
      <feOffset dx="-.25" dy=".25"></feOffset>
      <feGaussianBlur stdDeviation=".2"></feGaussianBlur>
      <feComposite in2="hardAlpha" k2="-1" k3="1" operator="arithmetic"></feComposite>
      <feColorMatrix values="0 0 0 0 0.847059 0 0 0 0 0.552941 0 0 0 0 0.235294 0 0 0 1 0"></feColorMatrix>
      <feBlend in2="shape" result="effect1_innerShadow_18_14563"></feBlend>
      <feColorMatrix in="SourceAlpha" result="hardAlpha" values="0 0 0 0 0 0 0 0 0 0 0 0 0 0 0 0 0 0 127 0"></feColorMatrix>
      <feOffset dx=".3" dy="-.3"></feOffset>
      <feGaussianBlur stdDeviation=".15"></feGaussianBlur>
      <feComposite in2="hardAlpha" k2="-1" k3="1" operator="arithmetic"></feComposite>
      <feColorMatrix values="0 0 0 0 1 0 0 0 0 0.921569 0 0 0 0 0.682353 0 0 0 1 0"></feColorMatrix>
      <feBlend in2="effect1_innerShadow_18_14563" result="effect2_innerShadow_18_14563"></feBlend>
    </filter>
    <filter id="filter5_f_18_14563" width="2.58" height="2.58" x="25.61" y="16.692" color-interpolation-filters="sRGB" filterUnits="userSpaceOnUse">
      <feFlood flood-opacity="0" result="BackgroundImageFix"></feFlood>
      <feBlend in="SourceGraphic" in2="BackgroundImageFix" result="shape"></feBlend>
      <feGaussianBlur result="effect1_foregroundBlur_18_14563" stdDeviation=".1"></feGaussianBlur>
    </filter>
    <filter id="filter6_ii_18_14563" width="2.33" height="2.33" x="25.759" y="16.792" color-interpolation-filters="sRGB" filterUnits="userSpaceOnUse">
      <feFlood flood-opacity="0" result="BackgroundImageFix"></feFlood>
      <feBlend in="SourceGraphic" in2="BackgroundImageFix" result="shape"></feBlend>
      <feColorMatrix in="SourceAlpha" result="hardAlpha" values="0 0 0 0 0 0 0 0 0 0 0 0 0 0 0 0 0 0 127 0"></feColorMatrix>
      <feOffset dx="-.15" dy=".15"></feOffset>
      <feGaussianBlur stdDeviation=".1"></feGaussianBlur>
      <feComposite in2="hardAlpha" k2="-1" k3="1" operator="arithmetic"></feComposite>
      <feColorMatrix values="0 0 0 0 0.847059 0 0 0 0 0.552941 0 0 0 0 0.235294 0 0 0 1 0"></feColorMatrix>
      <feBlend in2="shape" result="effect1_innerShadow_18_14563"></feBlend>
      <feColorMatrix in="SourceAlpha" result="hardAlpha" values="0 0 0 0 0 0 0 0 0 0 0 0 0 0 0 0 0 0 127 0"></feColorMatrix>
      <feOffset dx=".2" dy="-.2"></feOffset>
      <feGaussianBlur stdDeviation=".1"></feGaussianBlur>
      <feComposite in2="hardAlpha" k2="-1" k3="1" operator="arithmetic"></feComposite>
      <feColorMatrix values="0 0 0 0 1 0 0 0 0 0.921569 0 0 0 0 0.682353 0 0 0 1 0"></feColorMatrix>
      <feBlend in2="effect1_innerShadow_18_14563" result="effect2_innerShadow_18_14563"></feBlend>
    </filter>
    <filter id="filter7_f_18_14563" width="6.9" height="6.9" x="18.45" y="18.532" color-interpolation-filters="sRGB" filterUnits="userSpaceOnUse">
      <feFlood flood-opacity="0" result="BackgroundImageFix"></feFlood>
      <feBlend in="SourceGraphic" in2="BackgroundImageFix" result="shape"></feBlend>
      <feGaussianBlur result="effect1_foregroundBlur_18_14563" stdDeviation=".15"></feGaussianBlur>
    </filter>
    <filter id="filter8_ii_18_14563" width="6.55" height="6.65" x="18.649" y="18.582" color-interpolation-filters="sRGB" filterUnits="userSpaceOnUse">
      <feFlood flood-opacity="0" result="BackgroundImageFix"></feFlood>
      <feBlend in="SourceGraphic" in2="BackgroundImageFix" result="shape"></feBlend>
      <feColorMatrix in="SourceAlpha" result="hardAlpha" values="0 0 0 0 0 0 0 0 0 0 0 0 0 0 0 0 0 0 127 0"></feColorMatrix>
      <feOffset dx="-.25" dy=".25"></feOffset>
      <feGaussianBlur stdDeviation=".375"></feGaussianBlur>
      <feComposite in2="hardAlpha" k2="-1" k3="1" operator="arithmetic"></feComposite>
      <feColorMatrix values="0 0 0 0 0.8 0 0 0 0 0.537255 0 0 0 0 0.270588 0 0 0 1 0"></feColorMatrix>
      <feBlend in2="shape" result="effect1_innerShadow_18_14563"></feBlend>
      <feColorMatrix in="SourceAlpha" result="hardAlpha" values="0 0 0 0 0 0 0 0 0 0 0 0 0 0 0 0 0 0 127 0"></feColorMatrix>
      <feOffset dx=".3" dy="-.4"></feOffset>
      <feGaussianBlur stdDeviation=".5"></feGaussianBlur>
      <feComposite in2="hardAlpha" k2="-1" k3="1" operator="arithmetic"></feComposite>
      <feColorMatrix values="0 0 0 0 1 0 0 0 0 0.882353 0 0 0 0 0.611765 0 0 0 1 0"></feColorMatrix>
      <feBlend in2="effect1_innerShadow_18_14563" result="effect2_innerShadow_18_14563"></feBlend>
    </filter>
    <radialGradient id="paint1_radial_18_14563" cx="0" cy="0" r="1" gradientTransform="rotate(-23.408 47.47 -27.137)scale(15.7323 16.4902)" gradientUnits="userSpaceOnUse">
      <stop offset=".769" stop-color="#FFECAE" stop-opacity="0"></stop>
      <stop offset=".984" stop-color="#FFECAE"></stop>
    </radialGradient>
    <radialGradient id="paint2_radial_18_14563" cx="0" cy="0" r="1" gradientTransform="matrix(10.75852 -8.9783 9.41086 11.27684 8.705 31.214)" gradientUnits="userSpaceOnUse">
      <stop stop-color="#FF984F"></stop>
      <stop offset="1" stop-color="#FF984F" stop-opacity="0"></stop>
    </radialGradient>
    <radialGradient id="paint3_radial_18_14563" cx="0" cy="0" r="1" gradientTransform="rotate(13.627 -37.103 98.544)scale(2.62816 6.65588)" gradientUnits="userSpaceOnUse">
      <stop offset=".23" stop-color="#BA935B"></stop>
      <stop offset=".979" stop-color="#BA935B" stop-opacity="0"></stop>
    </radialGradient>
    <radialGradient id="paint5_radial_18_14563" cx="0" cy="0" r="1" gradientTransform="rotate(-22.978 69.701 -18.654)scale(2.4298)" gradientUnits="userSpaceOnUse">
      <stop stop-color="#FFBA6A"></stop>
      <stop offset="1" stop-color="#EB9E58"></stop>
    </radialGradient>
    <radialGradient id="paint7_radial_18_14563" cx="0" cy="0" r="1" gradientTransform="rotate(-15.521 60.009 -87.983)scale(2.32168)" gradientUnits="userSpaceOnUse">
      <stop stop-color="#FFD778"></stop>
      <stop offset="1" stop-color="#FFC767"></stop>
    </radialGradient>
    <radialGradient id="paint9_radial_18_14563" cx="0" cy="0" r="1" gradientTransform="rotate(-15.521 79.877 -88.064)scale(1.46399)" gradientUnits="userSpaceOnUse">
      <stop stop-color="#FFDE8F"></stop>
      <stop offset="1" stop-color="#FFC25B"></stop>
    </radialGradient>
    <radialGradient id="paint11_radial_18_14563" cx="0" cy="0" r="1" gradientTransform="rotate(-22.978 65.74 -39.472)scale(4.64293)" gradientUnits="userSpaceOnUse">
      <stop stop-color="#FFC75F"></stop>
      <stop offset="1" stop-color="#FABC5A"></stop>
    </radialGradient>
    <linearGradient id="paint0_linear_18_14563" x1="28.688" x2="10.75" y1="11.188" y2="29.313" gradientUnits="userSpaceOnUse">
      <stop stop-color="#FFD874"></stop>
      <stop offset="1" stop-color="#FFBC4C"></stop>
    </linearGradient>
    <linearGradient id="paint4_linear_18_14563" x1="14.857" x2="13.074" y1="24.65" y2="25.582" gradientUnits="userSpaceOnUse">
      <stop stop-color="#D0883B"></stop>
      <stop offset="1" stop-color="#FFCA6D"></stop>
    </linearGradient>
    <linearGradient id="paint6_linear_18_14563" x1="27.748" x2="25.295" y1="11.227" y2="13.854" gradientUnits="userSpaceOnUse">
      <stop stop-color="#E7AC47"></stop>
      <stop offset="1" stop-color="#FFE9A7"></stop>
    </linearGradient>
    <linearGradient id="paint8_linear_18_14563" x1="27.75" x2="26.203" y1="17.141" y2="18.797" gradientUnits="userSpaceOnUse">
      <stop stop-color="#E7AC47"></stop>
      <stop offset="1" stop-color="#FFE9A7"></stop>
    </linearGradient>
    <linearGradient id="paint10_linear_18_14563" x1="24.531" x2="21.125" y1="20.469" y2="22.25" gradientUnits="userSpaceOnUse">
      <stop stop-color="#E2A842"></stop>
      <stop offset="1" stop-color="#FFD778"></stop>
    </linearGradient>
  </defs>
</svg>
