<svg xmlns="http://www.w3.org/2000/svg" xml:space="preserve" enable-background="new 0 0 100 100" version="1.0" viewBox="0 0 100 100" id="filter">
  <g id="filter-2">
    <path d="M87.5,29.167h-75c-2.301,0-4.167-1.866-4.167-4.167s1.866-4.167,4.167-4.167h75c2.303,0,4.167,1.866,4.167,4.167
		S89.803,29.167,87.5,29.167z M79.167,50c0-2.301-1.864-4.167-4.167-4.167H25c-2.301,0-4.167,1.866-4.167,4.167
		s1.866,4.167,4.167,4.167h50C77.303,54.167,79.167,52.301,79.167,50z M66.667,75c0-2.303-1.864-4.167-4.167-4.167h-25
		c-2.301,0-4.167,1.864-4.167,4.167s1.866,4.167,4.167,4.167h25C64.803,79.167,66.667,77.303,66.667,75z"></path>
  </g>
</svg>
