<svg xmlns="http://www.w3.org/2000/svg" width="32" height="32" fill="none" viewBox="0 0 32 32" id="house">
  <g filter="url(#filter0_i_18_6052)">
    <path fill="url(#paint0_linear_18_6052)" d="M12.0081 16.5578C13.0667 16.005 13.7893 14.8968 13.7893 13.6198C13.7893 11.7903 12.3062 10.3073 10.4768 10.3073C8.91242 10.3073 7.60132 11.3917 7.25424 12.8499C7.16101 13.2415 6.84239 13.5622 6.45152 13.6587C5.01863 14.0128 3.95621 15.3069 3.95621 16.8491C3.95621 17.3716 4.07812 17.8655 4.29504 18.3041C4.45762 18.6328 4.37714 19.0541 4.10662 19.3018C3.47227 19.8824 3.07446 20.7172 3.07446 21.645C3.07446 23.3989 4.49631 24.8207 6.25024 24.8207H12.0081V16.5578Z"></path>
    <path fill="url(#paint1_linear_18_6052)" d="M12.0081 16.5578C13.0667 16.005 13.7893 14.8968 13.7893 13.6198C13.7893 11.7903 12.3062 10.3073 10.4768 10.3073C8.91242 10.3073 7.60132 11.3917 7.25424 12.8499C7.16101 13.2415 6.84239 13.5622 6.45152 13.6587C5.01863 14.0128 3.95621 15.3069 3.95621 16.8491C3.95621 17.3716 4.07812 17.8655 4.29504 18.3041C4.45762 18.6328 4.37714 19.0541 4.10662 19.3018C3.47227 19.8824 3.07446 20.7172 3.07446 21.645C3.07446 23.3989 4.49631 24.8207 6.25024 24.8207H12.0081V16.5578Z"></path>
    <path fill="url(#paint2_radial_18_6052)" d="M12.0081 16.5578C13.0667 16.005 13.7893 14.8968 13.7893 13.6198C13.7893 11.7903 12.3062 10.3073 10.4768 10.3073C8.91242 10.3073 7.60132 11.3917 7.25424 12.8499C7.16101 13.2415 6.84239 13.5622 6.45152 13.6587C5.01863 14.0128 3.95621 15.3069 3.95621 16.8491C3.95621 17.3716 4.07812 17.8655 4.29504 18.3041C4.45762 18.6328 4.37714 19.0541 4.10662 19.3018C3.47227 19.8824 3.07446 20.7172 3.07446 21.645C3.07446 23.3989 4.49631 24.8207 6.25024 24.8207H12.0081V16.5578Z"></path>
  </g>
  <g filter="url(#filter1_f_18_6052)">
    <ellipse cx="5.891" cy="21.869" fill="url(#paint3_radial_18_6052)" rx="2.126" ry="2.609" transform="rotate(-27.195 5.89 21.869)"></ellipse>
  </g>
  <g filter="url(#filter2_f_18_6052)">
    <ellipse cx="6.831" cy="16.36" fill="url(#paint4_radial_18_6052)" rx="2.112" ry="2.614" transform="rotate(50.517 6.831 16.36)"></ellipse>
  </g>
  <path fill="url(#paint5_radial_18_6052)" d="M10.0393 7.63162C10.0393 7.43832 10.196 7.28162 10.3893 7.28162H12.6737C12.867 7.28162 13.0237 7.43832 13.0237 7.63162V15.9144H10.0393V7.63162Z"></path>
  <path fill="url(#paint6_linear_18_6052)" d="M10.0393 7.63162C10.0393 7.43832 10.196 7.28162 10.3893 7.28162H12.6737C12.867 7.28162 13.0237 7.43832 13.0237 7.63162V15.9144H10.0393V7.63162Z"></path>
  <path fill="url(#paint7_linear_18_6052)" d="M10.0393 7.63162C10.0393 7.43832 10.196 7.28162 10.3893 7.28162H12.6737C12.867 7.28162 13.0237 7.43832 13.0237 7.63162V15.9144H10.0393V7.63162Z"></path>
  <path fill="url(#paint8_linear_18_6052)" d="M10.0393 7.63162C10.0393 7.43832 10.196 7.28162 10.3893 7.28162H12.6737C12.867 7.28162 13.0237 7.43832 13.0237 7.63162V15.9144H10.0393V7.63162Z"></path>
  <path fill="url(#paint9_radial_18_6052)" d="M10.0393 7.63162C10.0393 7.43832 10.196 7.28162 10.3893 7.28162H12.6737C12.867 7.28162 13.0237 7.43832 13.0237 7.63162V15.9144H10.0393V7.63162Z"></path>
  <path fill="url(#paint10_linear_18_6052)" d="M26.9292 28.0326H8.83435V16.7438L17.8818 7.71277L26.9292 16.7438V28.0326Z"></path>
  <path fill="url(#paint11_linear_18_6052)" d="M26.9292 28.0326H8.83435V16.7438L17.8818 7.71277L26.9292 16.7438V28.0326Z"></path>
  <path fill="url(#paint12_radial_18_6052)" d="M26.9292 28.0326H8.83435V16.7438L17.8818 7.71277L26.9292 16.7438V28.0326Z"></path>
  <path fill="url(#paint13_linear_18_6052)" d="M26.9292 28.0326H8.83435V16.7438L17.8818 7.71277L26.9292 16.7438V28.0326Z"></path>
  <path fill="url(#paint14_radial_18_6052)" d="M26.9292 28.0326H8.83435V16.7438L17.8818 7.71277L26.9292 16.7438V28.0326Z"></path>
  <path fill="url(#paint15_linear_18_6052)" d="M26.9292 28.0326H8.83435V16.7438L17.8818 7.71277L26.9292 16.7438V28.0326Z"></path>
  <path fill="url(#paint16_linear_18_6052)" d="M26.9292 28.0326H8.83435V16.7438L17.8818 7.71277L26.9292 16.7438V28.0326Z"></path>
  <g filter="url(#filter3_f_18_6052)">
    <path fill="url(#paint17_linear_18_6052)" d="M16.9728 28.0325H11.1418V19.736C11.1418 19.1038 11.5889 18.5846 12.1331 18.5846H15.9816C16.5258 18.5846 16.9728 19.1038 16.9728 19.736V28.0325V28.0325Z"></path>
  </g>
  <g filter="url(#filter4_f_18_6052)">
    <path fill="#68552B" d="M10.2897 27.434H18.3903V28.3847H10.2897V27.434Z"></path>
  </g>
  <g filter="url(#filter5_i_18_6052)">
    <path fill="url(#paint18_linear_18_6052)" d="M24.1815 23.1836H20.6639C20.2689 23.1836 19.9603 22.8627 19.9603 22.48V18.9621C19.9603 18.5671 20.2812 18.2585 20.6639 18.2585H24.1815C24.5764 18.2585 24.885 18.5795 24.885 18.9621V22.48C24.885 22.875 24.5764 23.1836 24.1815 23.1836Z"></path>
    <path fill="url(#paint19_linear_18_6052)" d="M24.1815 23.1836H20.6639C20.2689 23.1836 19.9603 22.8627 19.9603 22.48V18.9621C19.9603 18.5671 20.2812 18.2585 20.6639 18.2585H24.1815C24.5764 18.2585 24.885 18.5795 24.885 18.9621V22.48C24.885 22.875 24.5764 23.1836 24.1815 23.1836Z"></path>
  </g>
  <path fill="url(#paint20_linear_18_6052)" d="M24.1815 23.1836H20.6639C20.2689 23.1836 19.9603 22.8627 19.9603 22.48V18.9621C19.9603 18.5671 20.2812 18.2585 20.6639 18.2585H24.1815C24.5764 18.2585 24.885 18.5795 24.885 18.9621V22.48C24.885 22.875 24.5764 23.1836 24.1815 23.1836Z"></path>
  <path fill="url(#paint21_linear_18_6052)" d="M24.1815 23.1836H20.6639C20.2689 23.1836 19.9603 22.8627 19.9603 22.48V18.9621C19.9603 18.5671 20.2812 18.2585 20.6639 18.2585H24.1815C24.5764 18.2585 24.885 18.5795 24.885 18.9621V22.48C24.885 22.875 24.5764 23.1836 24.1815 23.1836Z"></path>
  <g filter="url(#filter6_ii_18_6052)">
    <path fill="url(#paint22_linear_18_6052)" d="M17.9728 27.0818H11.4695V19.2169C11.4695 18.6177 11.9681 18.1255 12.575 18.1255H16.8673C17.4742 18.1255 17.9728 18.6177 17.9728 19.2169V27.0818V27.0818Z"></path>
  </g>
  <g filter="url(#filter7_f_18_6052)">
    <path fill="#62393D" d="M16.3442 23.2287C16.6029 23.2287 16.8126 23.019 16.8126 22.7603C16.8126 22.5016 16.6029 22.2919 16.3442 22.2919C16.0855 22.2919 15.8757 22.5016 15.8757 22.7603C15.8757 23.019 16.0855 23.2287 16.3442 23.2287Z"></path>
  </g>
  <g filter="url(#filter8_ii_18_6052)">
    <path fill="#895D56" d="M16.4657 23.1581C16.727 23.1581 16.9389 22.9462 16.9389 22.6849C16.9389 22.4235 16.727 22.2117 16.4657 22.2117C16.2043 22.2117 15.9924 22.4235 15.9924 22.6849C15.9924 22.9462 16.2043 23.1581 16.4657 23.1581Z"></path>
  </g>
  <path fill="url(#paint23_linear_18_6052)" d="M29.2954 16.8517L18.595 6.31C18.1983 5.91327 17.5522 5.91327 17.1555 6.31C17.1555 6.31 17.1441 6.31 17.1441 6.32133L6.42108 16.8744C6.02435 17.2711 6.02435 17.9059 6.42108 18.2913C6.81781 18.6767 7.46392 18.688 7.86065 18.2913L17.6941 8.60255C17.7915 8.50666 17.9477 8.50666 18.0451 8.60254L27.8445 18.2573C28.2413 18.654 28.8874 18.654 29.2841 18.2573C29.6808 17.8605 29.6922 17.2371 29.2954 16.8517Z"></path>
  <path fill="url(#paint24_linear_18_6052)" d="M10.6328 27.8318C10.6328 27.4176 10.9686 27.0818 11.3828 27.0818H17.9835C18.3977 27.0818 18.7335 27.4176 18.7335 27.8318V28.0326H10.6328V27.8318Z"></path>
  <path fill="url(#paint25_linear_18_6052)" d="M10.6328 27.8318C10.6328 27.4176 10.9686 27.0818 11.3828 27.0818H17.9835C18.3977 27.0818 18.7335 27.4176 18.7335 27.8318V28.0326H10.6328V27.8318Z"></path>
  <path fill="url(#paint26_linear_18_6052)" d="M10.6328 27.8318C10.6328 27.4176 10.9686 27.0818 11.3828 27.0818H17.9835C18.3977 27.0818 18.7335 27.4176 18.7335 27.8318V28.0326H10.6328V27.8318Z"></path>
  <g filter="url(#filter9_i_18_6052)">
    <path fill="#3FD47B" d="M2.07581 30.0482C2.07581 28.935 2.97825 28.0326 4.09146 28.0326H27.9085C29.0217 28.0326 29.9242 28.935 29.9242 30.0482V30.0482H2.07581V30.0482Z"></path>
  </g>
  <path fill="url(#paint27_linear_18_6052)" d="M2.07581 30.0482C2.07581 28.935 2.97825 28.0326 4.09146 28.0326H27.9085C29.0217 28.0326 29.9242 28.935 29.9242 30.0482V30.0482H2.07581V30.0482Z"></path>
  <path fill="url(#paint28_radial_18_6052)" d="M2.07581 30.0482C2.07581 28.935 2.97825 28.0326 4.09146 28.0326H27.9085C29.0217 28.0326 29.9242 28.935 29.9242 30.0482V30.0482H2.07581V30.0482Z"></path>
  <path fill="url(#paint29_radial_18_6052)" d="M2.07581 30.0482C2.07581 28.935 2.97825 28.0326 4.09146 28.0326H27.9085C29.0217 28.0326 29.9242 28.935 29.9242 30.0482V30.0482H2.07581V30.0482Z"></path>
  <g filter="url(#filter10_i_18_6052)">
    <path fill="#2EAD69" d="M25.8968 30.0482C27.0854 29.6148 27.9326 28.4885 27.9326 27.1673C27.9326 25.4713 26.5364 24.0963 24.8141 24.0963C23.7592 24.0963 22.8267 24.612 22.2624 25.4014C21.9173 25.8841 21.418 26.2771 20.9199 26.5995C20.3419 26.9736 19.9603 27.6178 19.9603 28.3499C19.9603 29.049 20.3084 29.6681 20.8433 30.0482H25.8968Z"></path>
    <path fill="url(#paint30_linear_18_6052)" d="M25.8968 30.0482C27.0854 29.6148 27.9326 28.4885 27.9326 27.1673C27.9326 25.4713 26.5364 24.0963 24.8141 24.0963C23.7592 24.0963 22.8267 24.612 22.2624 25.4014C21.9173 25.8841 21.418 26.2771 20.9199 26.5995C20.3419 26.9736 19.9603 27.6178 19.9603 28.3499C19.9603 29.049 20.3084 29.6681 20.8433 30.0482H25.8968Z"></path>
    <path fill="url(#paint31_radial_18_6052)" d="M25.8968 30.0482C27.0854 29.6148 27.9326 28.4885 27.9326 27.1673C27.9326 25.4713 26.5364 24.0963 24.8141 24.0963C23.7592 24.0963 22.8267 24.612 22.2624 25.4014C21.9173 25.8841 21.418 26.2771 20.9199 26.5995C20.3419 26.9736 19.9603 27.6178 19.9603 28.3499C19.9603 29.049 20.3084 29.6681 20.8433 30.0482H25.8968Z"></path>
    <path fill="url(#paint32_radial_18_6052)" d="M25.8968 30.0482C27.0854 29.6148 27.9326 28.4885 27.9326 27.1673C27.9326 25.4713 26.5364 24.0963 24.8141 24.0963C23.7592 24.0963 22.8267 24.612 22.2624 25.4014C21.9173 25.8841 21.418 26.2771 20.9199 26.5995C20.3419 26.9736 19.9603 27.6178 19.9603 28.3499C19.9603 29.049 20.3084 29.6681 20.8433 30.0482H25.8968Z"></path>
  </g>
  <path fill="url(#paint33_radial_18_6052)" d="M25.8968 30.0482C27.0854 29.6148 27.9326 28.4885 27.9326 27.1673C27.9326 25.4713 26.5364 24.0963 24.8141 24.0963C23.7592 24.0963 22.8267 24.612 22.2624 25.4014C21.9173 25.8841 21.418 26.2771 20.9199 26.5995C20.3419 26.9736 19.9603 27.6178 19.9603 28.3499C19.9603 29.049 20.3084 29.6681 20.8433 30.0482H25.8968Z"></path>
  <g filter="url(#filter11_f_18_6052)">
    <path stroke="url(#paint34_linear_18_6052)" stroke-linecap="round" stroke-width=".3" d="M18.0415 6.81519L28.7718 17.3809"></path>
  </g>
  <g filter="url(#filter12_f_18_6052)">
    <path stroke="url(#paint35_linear_18_6052)" stroke-linecap="round" stroke-opacity=".5" stroke-width=".3" d="M18.0415 6.81519L7.31119 17.3809"></path>
  </g>
  <g filter="url(#filter13_f_18_6052)">
    <path fill="#31B570" d="M23.2229 29.2639C22.6309 28.52 22.3386 27.6597 22.2289 27.1358C22.2011 27.0033 22.062 26.9197 21.9354 26.9677L21.7571 27.0353C21.2587 27.2241 20.9291 27.7015 20.9291 28.2345C20.9291 28.9428 21.5032 29.5169 22.2115 29.5169H23.1068C23.2337 29.5169 23.3019 29.3632 23.2229 29.2639Z"></path>
  </g>
  <defs>
    <linearGradient id="paint0_linear_18_6052" x1="8.432" x2="8.432" y1="10.307" y2="24.821" gradientUnits="userSpaceOnUse">
      <stop stop-color="#29884D"></stop>
      <stop offset="1" stop-color="#227341"></stop>
    </linearGradient>
    <linearGradient id="paint1_linear_18_6052" x1="6.242" x2="6.242" y1="24.977" y2="24.211" gradientUnits="userSpaceOnUse">
      <stop stop-color="#4E7978"></stop>
      <stop offset="1" stop-color="#4E7978" stop-opacity="0"></stop>
    </linearGradient>
    <linearGradient id="paint6_linear_18_6052" x1="9.833" x2="11.082" y1="10.616" y2="10.616" gradientUnits="userSpaceOnUse">
      <stop stop-color="#8E694B"></stop>
      <stop offset="1" stop-color="#8E694B" stop-opacity="0"></stop>
    </linearGradient>
    <linearGradient id="paint7_linear_18_6052" x1="12.278" x2="11.732" y1="11.598" y2="10.954" gradientUnits="userSpaceOnUse">
      <stop stop-color="#C77958"></stop>
      <stop offset="1" stop-color="#C77958" stop-opacity="0"></stop>
    </linearGradient>
    <linearGradient id="paint8_linear_18_6052" x1="11.531" x2="11.531" y1="7.235" y2="7.375" gradientUnits="userSpaceOnUse">
      <stop stop-color="#D5AD80"></stop>
      <stop offset="1" stop-color="#D5AD80" stop-opacity="0"></stop>
    </linearGradient>
    <linearGradient id="paint10_linear_18_6052" x1="9.492" x2="26.43" y1="20.993" y2="20.993" gradientUnits="userSpaceOnUse">
      <stop stop-color="#D7905F"></stop>
      <stop offset="1" stop-color="#E8BC97"></stop>
    </linearGradient>
    <linearGradient id="paint11_linear_18_6052" x1="9.969" x2="16.606" y1="28.505" y2="18.939" gradientUnits="userSpaceOnUse">
      <stop stop-color="#BA8951"></stop>
      <stop offset="1" stop-color="#BA8951" stop-opacity="0"></stop>
    </linearGradient>
    <linearGradient id="paint13_linear_18_6052" x1="26.929" x2="26.348" y1="23.764" y2="23.764" gradientUnits="userSpaceOnUse">
      <stop stop-color="#FFE6B1"></stop>
      <stop offset="1" stop-color="#FFE6B1" stop-opacity="0"></stop>
    </linearGradient>
    <linearGradient id="paint15_linear_18_6052" x1="20.927" x2="20.537" y1="11.209" y2="11.599" gradientUnits="userSpaceOnUse">
      <stop stop-color="#B55852"></stop>
      <stop offset="1" stop-color="#B55852" stop-opacity="0"></stop>
    </linearGradient>
    <linearGradient id="paint16_linear_18_6052" x1="8.723" x2="9.341" y1="25.702" y2="25.702" gradientUnits="userSpaceOnUse">
      <stop stop-color="#845F3D"></stop>
      <stop offset="1" stop-color="#845F3D" stop-opacity="0"></stop>
    </linearGradient>
    <linearGradient id="paint17_linear_18_6052" x1="14.057" x2="14.057" y1="18.585" y2="28.032" gradientUnits="userSpaceOnUse">
      <stop stop-color="#805139"></stop>
      <stop offset="1" stop-color="#6D4D2F"></stop>
    </linearGradient>
    <linearGradient id="paint18_linear_18_6052" x1="19.96" x2="25.275" y1="23.556" y2="18.259" gradientUnits="userSpaceOnUse">
      <stop stop-color="#4CCCFF"></stop>
      <stop offset="1" stop-color="#3A9EE6"></stop>
    </linearGradient>
    <linearGradient id="paint19_linear_18_6052" x1="22.423" x2="22.423" y1="23.493" y2="22.524" gradientUnits="userSpaceOnUse">
      <stop stop-color="#1E9FE4"></stop>
      <stop offset="1" stop-color="#1E9FE4" stop-opacity="0"></stop>
    </linearGradient>
    <linearGradient id="paint20_linear_18_6052" x1="19.96" x2="20.949" y1="21.932" y2="21.932" gradientUnits="userSpaceOnUse">
      <stop stop-color="#48E0FF"></stop>
      <stop offset="1" stop-color="#48E0FF" stop-opacity="0"></stop>
    </linearGradient>
    <linearGradient id="paint21_linear_18_6052" x1="20.705" x2="21.368" y1="17.397" y2="19.385" gradientUnits="userSpaceOnUse">
      <stop stop-color="#43B3F2"></stop>
      <stop offset="1" stop-color="#43B3F2" stop-opacity="0"></stop>
    </linearGradient>
    <linearGradient id="paint22_linear_18_6052" x1="11.47" x2="17.973" y1="23.743" y2="23.701" gradientUnits="userSpaceOnUse">
      <stop stop-color="#70504D"></stop>
      <stop offset="1" stop-color="#9B665E"></stop>
    </linearGradient>
    <linearGradient id="paint23_linear_18_6052" x1="17.855" x2="17.855" y1="6.012" y2="18.585" gradientUnits="userSpaceOnUse">
      <stop stop-color="#EA6D2E"></stop>
      <stop offset="1" stop-color="#CA222B"></stop>
    </linearGradient>
    <linearGradient id="paint24_linear_18_6052" x1="10.851" x2="18.438" y1="28.033" y2="28.033" gradientUnits="userSpaceOnUse">
      <stop stop-color="#9FA1A3"></stop>
      <stop offset="1" stop-color="#C4C1C7"></stop>
    </linearGradient>
    <linearGradient id="paint25_linear_18_6052" x1="10.497" x2="11.463" y1="28.033" y2="28.033" gradientUnits="userSpaceOnUse">
      <stop stop-color="#59675C"></stop>
      <stop offset="1" stop-color="#59675C" stop-opacity="0"></stop>
    </linearGradient>
    <linearGradient id="paint26_linear_18_6052" x1="18.733" x2="17.836" y1="27.557" y2="28.033" gradientUnits="userSpaceOnUse">
      <stop stop-color="#C8CAC6"></stop>
      <stop offset="1" stop-color="#C8CAC6" stop-opacity="0"></stop>
    </linearGradient>
    <linearGradient id="paint27_linear_18_6052" x1="16" x2="16" y1="30.583" y2="29.04" gradientUnits="userSpaceOnUse">
      <stop offset=".107" stop-color="#3FD17B"></stop>
      <stop offset="1" stop-color="#3FD17B" stop-opacity="0"></stop>
    </linearGradient>
    <linearGradient id="paint30_linear_18_6052" x1="23.04" x2="23.04" y1="30.654" y2="28.592" gradientUnits="userSpaceOnUse">
      <stop stop-color="#3B8478"></stop>
      <stop offset="1" stop-color="#3B8478" stop-opacity="0"></stop>
    </linearGradient>
    <linearGradient id="paint34_linear_18_6052" x1="17.712" x2="29.221" y1="6.651" y2="18.501" gradientUnits="userSpaceOnUse">
      <stop stop-color="#FF8337"></stop>
      <stop offset="1" stop-color="#F24747"></stop>
    </linearGradient>
    <linearGradient id="paint35_linear_18_6052" x1="18.371" x2="6.862" y1="6.651" y2="18.501" gradientUnits="userSpaceOnUse">
      <stop stop-color="#FF8337"></stop>
      <stop offset="1" stop-color="#F24747"></stop>
    </linearGradient>
    <filter id="filter0_i_18_6052" width="10.915" height="14.713" x="3.074" y="10.307" color-interpolation-filters="sRGB" filterUnits="userSpaceOnUse">
      <feFlood flood-opacity="0" result="BackgroundImageFix"></feFlood>
      <feBlend in="SourceGraphic" in2="BackgroundImageFix" result="shape"></feBlend>
      <feColorMatrix in="SourceAlpha" result="hardAlpha" values="0 0 0 0 0 0 0 0 0 0 0 0 0 0 0 0 0 0 127 0"></feColorMatrix>
      <feOffset dx=".2" dy=".2"></feOffset>
      <feGaussianBlur stdDeviation=".5"></feGaussianBlur>
      <feComposite in2="hardAlpha" k2="-1" k3="1" operator="arithmetic"></feComposite>
      <feColorMatrix values="0 0 0 0 0.301961 0 0 0 0 0.592157 0 0 0 0 0.392157 0 0 0 1 0"></feColorMatrix>
      <feBlend in2="shape" result="effect1_innerShadow_18_6052"></feBlend>
    </filter>
    <filter id="filter1_f_18_6052" width="6.472" height="7.033" x="2.655" y="18.352" color-interpolation-filters="sRGB" filterUnits="userSpaceOnUse">
      <feFlood flood-opacity="0" result="BackgroundImageFix"></feFlood>
      <feBlend in="SourceGraphic" in2="BackgroundImageFix" result="shape"></feBlend>
      <feGaussianBlur result="effect1_foregroundBlur_18_6052" stdDeviation=".5"></feGaussianBlur>
    </filter>
    <filter id="filter2_f_18_6052" width="6.848" height="6.657" x="3.407" y="13.032" color-interpolation-filters="sRGB" filterUnits="userSpaceOnUse">
      <feFlood flood-opacity="0" result="BackgroundImageFix"></feFlood>
      <feBlend in="SourceGraphic" in2="BackgroundImageFix" result="shape"></feBlend>
      <feGaussianBlur result="effect1_foregroundBlur_18_6052" stdDeviation=".5"></feGaussianBlur>
    </filter>
    <filter id="filter3_f_18_6052" width="6.831" height="10.448" x="10.642" y="18.085" color-interpolation-filters="sRGB" filterUnits="userSpaceOnUse">
      <feFlood flood-opacity="0" result="BackgroundImageFix"></feFlood>
      <feBlend in="SourceGraphic" in2="BackgroundImageFix" result="shape"></feBlend>
      <feGaussianBlur result="effect1_foregroundBlur_18_6052" stdDeviation=".25"></feGaussianBlur>
    </filter>
    <filter id="filter4_f_18_6052" width="9.101" height="1.951" x="9.79" y="26.934" color-interpolation-filters="sRGB" filterUnits="userSpaceOnUse">
      <feFlood flood-opacity="0" result="BackgroundImageFix"></feFlood>
      <feBlend in="SourceGraphic" in2="BackgroundImageFix" result="shape"></feBlend>
      <feGaussianBlur result="effect1_foregroundBlur_18_6052" stdDeviation=".25"></feGaussianBlur>
    </filter>
    <filter id="filter5_i_18_6052" width="5.425" height="5.425" x="19.46" y="18.259" color-interpolation-filters="sRGB" filterUnits="userSpaceOnUse">
      <feFlood flood-opacity="0" result="BackgroundImageFix"></feFlood>
      <feBlend in="SourceGraphic" in2="BackgroundImageFix" result="shape"></feBlend>
      <feColorMatrix in="SourceAlpha" result="hardAlpha" values="0 0 0 0 0 0 0 0 0 0 0 0 0 0 0 0 0 0 127 0"></feColorMatrix>
      <feOffset dx="-.5" dy=".5"></feOffset>
      <feGaussianBlur stdDeviation=".25"></feGaussianBlur>
      <feComposite in2="hardAlpha" k2="-1" k3="1" operator="arithmetic"></feComposite>
      <feColorMatrix values="0 0 0 0 0.0470588 0 0 0 0 0.47451 0 0 0 0 0.792157 0 0 0 1 0"></feColorMatrix>
      <feBlend in2="shape" result="effect1_innerShadow_18_6052"></feBlend>
    </filter>
    <filter id="filter6_ii_18_6052" width="6.953" height="8.956" x="11.27" y="18.125" color-interpolation-filters="sRGB" filterUnits="userSpaceOnUse">
      <feFlood flood-opacity="0" result="BackgroundImageFix"></feFlood>
      <feBlend in="SourceGraphic" in2="BackgroundImageFix" result="shape"></feBlend>
      <feColorMatrix in="SourceAlpha" result="hardAlpha" values="0 0 0 0 0 0 0 0 0 0 0 0 0 0 0 0 0 0 127 0"></feColorMatrix>
      <feOffset dx=".25"></feOffset>
      <feGaussianBlur stdDeviation=".25"></feGaussianBlur>
      <feComposite in2="hardAlpha" k2="-1" k3="1" operator="arithmetic"></feComposite>
      <feColorMatrix values="0 0 0 0 0.254902 0 0 0 0 0.188235 0 0 0 0 0.141176 0 0 0 1 0"></feColorMatrix>
      <feBlend in2="shape" result="effect1_innerShadow_18_6052"></feBlend>
      <feColorMatrix in="SourceAlpha" result="hardAlpha" values="0 0 0 0 0 0 0 0 0 0 0 0 0 0 0 0 0 0 127 0"></feColorMatrix>
      <feOffset dx="-.2"></feOffset>
      <feGaussianBlur stdDeviation=".15"></feGaussianBlur>
      <feComposite in2="hardAlpha" k2="-1" k3="1" operator="arithmetic"></feComposite>
      <feColorMatrix values="0 0 0 0 0.694118 0 0 0 0 0.470588 0 0 0 0 0.407843 0 0 0 1 0"></feColorMatrix>
      <feBlend in2="effect1_innerShadow_18_6052" result="effect2_innerShadow_18_6052"></feBlend>
    </filter>
    <filter id="filter7_f_18_6052" width="1.237" height="1.237" x="15.726" y="22.142" color-interpolation-filters="sRGB" filterUnits="userSpaceOnUse">
      <feFlood flood-opacity="0" result="BackgroundImageFix"></feFlood>
      <feBlend in="SourceGraphic" in2="BackgroundImageFix" result="shape"></feBlend>
      <feGaussianBlur result="effect1_foregroundBlur_18_6052" stdDeviation=".075"></feGaussianBlur>
    </filter>
    <filter id="filter8_ii_18_6052" width="1.146" height=".946" x="15.892" y="22.212" color-interpolation-filters="sRGB" filterUnits="userSpaceOnUse">
      <feFlood flood-opacity="0" result="BackgroundImageFix"></feFlood>
      <feBlend in="SourceGraphic" in2="BackgroundImageFix" result="shape"></feBlend>
      <feColorMatrix in="SourceAlpha" result="hardAlpha" values="0 0 0 0 0 0 0 0 0 0 0 0 0 0 0 0 0 0 127 0"></feColorMatrix>
      <feOffset dx="-.1"></feOffset>
      <feGaussianBlur stdDeviation=".1"></feGaussianBlur>
      <feComposite in2="hardAlpha" k2="-1" k3="1" operator="arithmetic"></feComposite>
      <feColorMatrix values="0 0 0 0 0.694118 0 0 0 0 0.482353 0 0 0 0 0.419608 0 0 0 1 0"></feColorMatrix>
      <feBlend in2="shape" result="effect1_innerShadow_18_6052"></feBlend>
      <feColorMatrix in="SourceAlpha" result="hardAlpha" values="0 0 0 0 0 0 0 0 0 0 0 0 0 0 0 0 0 0 127 0"></feColorMatrix>
      <feOffset dx=".1"></feOffset>
      <feGaussianBlur stdDeviation=".1"></feGaussianBlur>
      <feComposite in2="hardAlpha" k2="-1" k3="1" operator="arithmetic"></feComposite>
      <feColorMatrix values="0 0 0 0 0.290196 0 0 0 0 0.184314 0 0 0 0 0.164706 0 0 0 1 0"></feColorMatrix>
      <feBlend in2="effect1_innerShadow_18_6052" result="effect2_innerShadow_18_6052"></feBlend>
    </filter>
    <filter id="filter9_i_18_6052" width="28.348" height="2.016" x="2.076" y="28.033" color-interpolation-filters="sRGB" filterUnits="userSpaceOnUse">
      <feFlood flood-opacity="0" result="BackgroundImageFix"></feFlood>
      <feBlend in="SourceGraphic" in2="BackgroundImageFix" result="shape"></feBlend>
      <feColorMatrix in="SourceAlpha" result="hardAlpha" values="0 0 0 0 0 0 0 0 0 0 0 0 0 0 0 0 0 0 127 0"></feColorMatrix>
      <feOffset dx=".5"></feOffset>
      <feGaussianBlur stdDeviation=".5"></feGaussianBlur>
      <feComposite in2="hardAlpha" k2="-1" k3="1" operator="arithmetic"></feComposite>
      <feColorMatrix values="0 0 0 0 0.25098 0 0 0 0 0.545098 0 0 0 0 0.352941 0 0 0 1 0"></feColorMatrix>
      <feBlend in2="shape" result="effect1_innerShadow_18_6052"></feBlend>
    </filter>
    <filter id="filter10_i_18_6052" width="8.172" height="6.152" x="19.96" y="24.096" color-interpolation-filters="sRGB" filterUnits="userSpaceOnUse">
      <feFlood flood-opacity="0" result="BackgroundImageFix"></feFlood>
      <feBlend in="SourceGraphic" in2="BackgroundImageFix" result="shape"></feBlend>
      <feColorMatrix in="SourceAlpha" result="hardAlpha" values="0 0 0 0 0 0 0 0 0 0 0 0 0 0 0 0 0 0 127 0"></feColorMatrix>
      <feOffset dx=".2" dy=".2"></feOffset>
      <feGaussianBlur stdDeviation=".3"></feGaussianBlur>
      <feComposite in2="hardAlpha" k2="-1" k3="1" operator="arithmetic"></feComposite>
      <feColorMatrix values="0 0 0 0 0.309804 0 0 0 0 0.564706 0 0 0 0 0.329412 0 0 0 1 0"></feColorMatrix>
      <feBlend in2="shape" result="effect1_innerShadow_18_6052"></feBlend>
    </filter>
    <filter id="filter11_f_18_6052" width="12.23" height="12.066" x="17.291" y="6.065" color-interpolation-filters="sRGB" filterUnits="userSpaceOnUse">
      <feFlood flood-opacity="0" result="BackgroundImageFix"></feFlood>
      <feBlend in="SourceGraphic" in2="BackgroundImageFix" result="shape"></feBlend>
      <feGaussianBlur result="effect1_foregroundBlur_18_6052" stdDeviation=".3"></feGaussianBlur>
    </filter>
    <filter id="filter12_f_18_6052" width="12.23" height="12.066" x="6.561" y="6.065" color-interpolation-filters="sRGB" filterUnits="userSpaceOnUse">
      <feFlood flood-opacity="0" result="BackgroundImageFix"></feFlood>
      <feBlend in="SourceGraphic" in2="BackgroundImageFix" result="shape"></feBlend>
      <feGaussianBlur result="effect1_foregroundBlur_18_6052" stdDeviation=".3"></feGaussianBlur>
    </filter>
    <filter id="filter13_f_18_6052" width="3.828" height="4.063" x="20.179" y="26.204" color-interpolation-filters="sRGB" filterUnits="userSpaceOnUse">
      <feFlood flood-opacity="0" result="BackgroundImageFix"></feFlood>
      <feBlend in="SourceGraphic" in2="BackgroundImageFix" result="shape"></feBlend>
      <feGaussianBlur result="effect1_foregroundBlur_18_6052" stdDeviation=".375"></feGaussianBlur>
    </filter>
    <radialGradient id="paint2_radial_18_6052" cx="0" cy="0" r="1" gradientTransform="matrix(0 2.81682 -2.62539 0 10.204 9.57)" gradientUnits="userSpaceOnUse">
      <stop offset=".097" stop-color="#4DB56F"></stop>
      <stop offset="1" stop-color="#4DB56F" stop-opacity="0"></stop>
    </radialGradient>
    <radialGradient id="paint3_radial_18_6052" cx="0" cy="0" r="1" gradientTransform="matrix(3.98289 -.7388 1.23623 6.66453 5.017 22.274)" gradientUnits="userSpaceOnUse">
      <stop stop-color="#279D5A"></stop>
      <stop offset="1" stop-color="#279D5A" stop-opacity="0"></stop>
    </radialGradient>
    <radialGradient id="paint4_radial_18_6052" cx="0" cy="0" r="1" gradientTransform="matrix(3.01153 -.52625 .88784 5.08076 5.312 16.436)" gradientUnits="userSpaceOnUse">
      <stop stop-color="#2EA75B"></stop>
      <stop offset="1" stop-color="#2EA75B" stop-opacity="0"></stop>
    </radialGradient>
    <radialGradient id="paint5_radial_18_6052" cx="0" cy="0" r="1" gradientTransform="matrix(0 3.83317 -1.9031 0 12.62 7.765)" gradientUnits="userSpaceOnUse">
      <stop stop-color="#FFD1A3"></stop>
      <stop offset="1" stop-color="#DFA276"></stop>
    </radialGradient>
    <radialGradient id="paint9_radial_18_6052" cx="0" cy="0" r="1" gradientTransform="matrix(-2.06764 0 0 -.44445 13.374 7.436)" gradientUnits="userSpaceOnUse">
      <stop stop-color="#FFE9B1"></stop>
      <stop offset="1" stop-color="#FFE9B1" stop-opacity="0"></stop>
    </radialGradient>
    <radialGradient id="paint12_radial_18_6052" cx="0" cy="0" r="1" gradientTransform="rotate(-117.235 19.026 7.176)scale(3.17675 3.84262)" gradientUnits="userSpaceOnUse">
      <stop stop-color="#BEAB75"></stop>
      <stop offset="1" stop-color="#BEAB75" stop-opacity="0"></stop>
    </radialGradient>
    <radialGradient id="paint14_radial_18_6052" cx="0" cy="0" r="1" gradientTransform="matrix(0 3.96174 -.83806 0 27.143 16.07)" gradientUnits="userSpaceOnUse">
      <stop offset=".35" stop-color="#9E413E"></stop>
      <stop offset="1" stop-color="#9E413E" stop-opacity="0"></stop>
    </radialGradient>
    <radialGradient id="paint28_radial_18_6052" cx="0" cy="0" r="1" gradientTransform="matrix(-1.1875 1.5147 -1.91085 -1.49808 20.774 29.04)" gradientUnits="userSpaceOnUse">
      <stop offset=".171" stop-color="#228051"></stop>
      <stop offset="1" stop-color="#228051" stop-opacity="0"></stop>
    </radialGradient>
    <radialGradient id="paint29_radial_18_6052" cx="0" cy="0" r="1" gradientTransform="rotate(147.147 10.873 18.282)scale(3.34109 5.47856)" gradientUnits="userSpaceOnUse">
      <stop stop-color="#5CEE92"></stop>
      <stop offset="1" stop-color="#5CEE92" stop-opacity="0"></stop>
    </radialGradient>
    <radialGradient id="paint31_radial_18_6052" cx="0" cy="0" r="1" gradientTransform="matrix(-2.36256 -6.3769 2.90477 -1.07618 25.028 33.022)" gradientUnits="userSpaceOnUse">
      <stop stop-color="#2C785B"></stop>
      <stop offset="1" stop-color="#2C785B" stop-opacity="0"></stop>
    </radialGradient>
    <radialGradient id="paint32_radial_18_6052" cx="0" cy="0" r="1" gradientTransform="matrix(-5.97354 4.64827 -6.2916 -8.0854 26.046 26.184)" gradientUnits="userSpaceOnUse">
      <stop offset=".641" stop-color="#2C785B" stop-opacity="0"></stop>
      <stop offset=".966" stop-color="#2C785B"></stop>
    </radialGradient>
    <radialGradient id="paint33_radial_18_6052" cx="0" cy="0" r="1" gradientTransform="rotate(148.884 10.26 16.632)scale(4.31431 4.10712)" gradientUnits="userSpaceOnUse">
      <stop stop-color="#60FB9A"></stop>
      <stop offset="1" stop-color="#60FB9A" stop-opacity="0"></stop>
    </radialGradient>
  </defs>
</svg>
