<svg xmlns="http://www.w3.org/2000/svg" width="32" height="32" fill="none" viewBox="0 0 32 32" id="plant">
  <path fill="#497426" d="M16.0075 19.2362C15.7575 19.2362 15.5575 19.0362 15.5575 18.7862V16.9909C15.5575 16.9247 15.514 16.8663 15.4506 16.8473L11.3009 15.6041C11.2216 15.5803 11.1765 15.4967 11.2003 15.4173L11.3747 14.8351C11.3985 14.7557 11.4821 14.7107 11.5614 14.7345L15.3645 15.8738C15.4607 15.9026 15.5575 15.8306 15.5575 15.7301V15.6562C15.5575 14.6562 15.8375 13.6662 16.3975 12.8262C16.5349 12.6186 16.6527 12.4017 16.7505 12.1773C16.7855 12.0969 16.7407 12.0053 16.6568 11.9802L11.9008 10.5543C11.8214 10.5305 11.7764 10.4469 11.8002 10.3675L11.9747 9.78532C11.9985 9.70596 12.0821 9.66092 12.1615 9.68471L16.8875 11.1016C16.9743 11.1276 17.0644 11.0713 17.0753 10.9813C17.0967 10.8048 17.1075 10.6262 17.1075 10.4462V8.49619C17.1075 8.41335 17.1747 8.34619 17.2575 8.34619H17.8575C17.9404 8.34619 18.0075 8.41335 18.0075 8.49619V10.4462C18.0075 10.4897 18.007 10.533 18.0059 10.5763C18.0034 10.6808 18.1028 10.7599 18.203 10.73L21.7337 9.67449C21.8131 9.65076 21.8967 9.69587 21.9204 9.77524L22.0945 10.3576C22.1182 10.4369 22.0731 10.5205 21.9938 10.5443L17.9144 11.7638C17.8644 11.7787 17.8259 11.8186 17.8117 11.8688C17.6694 12.3716 17.4504 12.8517 17.1575 13.2962C16.6975 13.9962 16.4575 14.8162 16.4575 15.6562V16.4471C16.4575 16.5475 16.5543 16.6196 16.6506 16.5907L20.4435 15.4544C20.5229 15.4307 20.6065 15.4757 20.6302 15.5551L20.8047 16.1373C20.8284 16.2167 20.7834 16.3003 20.704 16.324L16.5645 17.5642C16.501 17.5832 16.4575 17.6416 16.4575 17.7079V18.7862C16.4575 19.0362 16.2575 19.2362 16.0075 19.2362Z"></path>
  <path fill="#497426" d="M16.0075 19.2362C15.7575 19.2362 15.5575 19.0362 15.5575 18.7862V15.6562C15.5575 14.6562 15.8375 13.6662 16.3975 12.8262C16.8675 12.1162 17.1075 11.2962 17.1075 10.4462V8.34619H18.0075V10.4462C18.0075 11.4662 17.7175 12.4462 17.1575 13.2962C16.6975 13.9962 16.4575 14.8162 16.4575 15.6562V18.7862C16.4575 19.0362 16.2575 19.2362 16.0075 19.2362Z"></path>
  <path fill="url(#paint0_linear_28327_7581)" d="M16.0075 19.2362C15.7575 19.2362 15.5575 19.0362 15.5575 18.7862V15.6562C15.5575 14.6562 15.8375 13.6662 16.3975 12.8262C16.8675 12.1162 17.1075 11.2962 17.1075 10.4462V8.34619H18.0075V10.4462C18.0075 11.4662 17.7175 12.4462 17.1575 13.2962C16.6975 13.9962 16.4575 14.8162 16.4575 15.6562V18.7862C16.4575 19.0362 16.2575 19.2362 16.0075 19.2362Z"></path>
  <path stroke="#497426" stroke-miterlimit="10" stroke-width=".908" d="M11.2875 15.1262L16.1275 16.5762"></path>
  <path stroke="url(#paint1_linear_28327_7581)" stroke-miterlimit="10" stroke-width=".908" d="M11.2875 15.1262L16.1275 16.5762"></path>
  <path stroke="#497426" stroke-miterlimit="10" stroke-width=".908" d="M11.8875 10.0764L17.1575 11.6564"></path>
  <path stroke="url(#paint2_linear_28327_7581)" stroke-miterlimit="10" stroke-width=".908" d="M11.8875 10.0764L17.1575 11.6564"></path>
  <path stroke="#497426" stroke-miterlimit="10" stroke-width=".908" d="M20.7174 15.8462L15.8774 17.2962"></path>
  <path stroke="url(#paint3_radial_28327_7581)" stroke-miterlimit="10" stroke-width=".908" d="M20.7174 15.8462L15.8774 17.2962"></path>
  <path stroke="url(#paint4_linear_28327_7581)" stroke-miterlimit="10" stroke-width=".908" d="M20.7174 15.8462L15.8774 17.2962"></path>
  <path stroke="#497426" stroke-miterlimit="10" stroke-width=".908" d="M22.0074 10.0664L17.2574 11.4864"></path>
  <path stroke="url(#paint5_linear_28327_7581)" stroke-miterlimit="10" stroke-width=".908" d="M22.0074 10.0664L17.2574 11.4864"></path>
  <path stroke="url(#paint6_linear_28327_7581)" stroke-miterlimit="10" stroke-width=".908" d="M22.0074 10.0664L17.2574 11.4864"></path>
  <g filter="url(#filter0_f_28327_7581)">
    <path stroke="url(#paint7_linear_28327_7581)" stroke-linecap="round" stroke-width=".25" d="M14.6016 10.7656L17.3125 11.5781"></path>
  </g>
  <g filter="url(#filter1_f_28327_7581)">
    <path stroke="url(#paint8_linear_28327_7581)" stroke-linecap="round" stroke-width=".25" d="M13.1844 15.5938L15.8954 16.4062"></path>
  </g>
  <g filter="url(#filter2_f_28327_7581)">
    <path stroke="url(#paint9_linear_28327_7581)" stroke-linecap="round" stroke-width=".25" d="M18.5129 16.4836L15.802 17.2961"></path>
  </g>
  <g filter="url(#filter3_f_28327_7581)">
    <path stroke="url(#paint10_linear_28327_7581)" stroke-linecap="round" stroke-width=".25" d="M19.8684 10.6238L17.1575 11.4363"></path>
  </g>
  <g filter="url(#filter4_f_28327_7581)">
    <path stroke="url(#paint11_linear_28327_7581)" stroke-linecap="round" stroke-width=".25" d="M17.5575 8.98608V10.6476C17.5575 11.2735 17.4106 11.8907 17.1286 12.4495L16.5562 13.5839C16.2038 14.2824 16.0201 15.0539 16.0201 15.8363V18.3919"></path>
  </g>
  <path fill="url(#paint12_radial_28327_7581)" d="M21.7375 19.9963C20.1475 18.7463 18.1575 17.9963 16.0075 17.9963C13.8575 17.9963 11.8675 18.7463 10.2775 19.9963H21.7375Z"></path>
  <path fill="url(#paint13_radial_28327_7581)" d="M17.4575 2.0663C15.4275 4.0263 15.3675 7.2563 17.3275 9.2863C17.4175 9.3763 17.5675 9.3863 17.6575 9.2963C19.6875 7.3363 19.7475 4.1063 17.7875 2.0763C17.6975 1.9763 17.5475 1.9763 17.4575 2.0663Z"></path>
  <g filter="url(#filter5_f_28327_7581)">
    <path fill="url(#paint14_linear_28327_7581)" d="M17.4884 2.72127C16.0862 4.32598 16.0448 6.97048 17.3986 8.63249C17.4608 8.70618 17.5644 8.71437 17.6266 8.64068C19.0287 7.03597 19.0702 4.39148 17.7163 2.72946C17.6542 2.64759 17.5506 2.64759 17.4884 2.72127Z"></path>
  </g>
  <g filter="url(#filter6_i_28327_7581)">
    <path fill="#7AAD33" d="M10.6575 11.5263L7.39703 10.5482C7.26474 10.5085 7.12439 10.5837 7.09361 10.7183C6.66045 12.6131 7.7676 14.5408 9.64747 15.1163L12.909 16.0948C13.0409 16.1343 13.1808 16.0598 13.2121 15.9257C13.655 14.0297 12.5474 12.0923 10.6575 11.5263Z"></path>
    <path fill="url(#paint15_radial_28327_7581)" d="M10.6575 11.5263L7.39703 10.5482C7.26474 10.5085 7.12439 10.5837 7.09361 10.7183C6.66045 12.6131 7.7676 14.5408 9.64747 15.1163L12.909 16.0948C13.0409 16.1343 13.1808 16.0598 13.2121 15.9257C13.655 14.0297 12.5474 12.0923 10.6575 11.5263Z"></path>
  </g>
  <g filter="url(#filter7_i_28327_7581)">
    <path fill="#7AAD33" d="M12.1275 6.73628L8.86816 5.75849C8.73543 5.71867 8.59471 5.7945 8.56443 5.92972C8.14022 7.82405 9.23848 9.75095 11.1275 10.3263L14.3879 11.3044C14.5202 11.3441 14.6605 11.2689 14.6913 11.1343C15.1245 9.23872 14.0169 7.30216 12.1275 6.73628Z"></path>
    <path fill="url(#paint16_radial_28327_7581)" d="M12.1275 6.73628L8.86816 5.75849C8.73543 5.71867 8.59471 5.7945 8.56443 5.92972C8.14022 7.82405 9.23848 9.75095 11.1275 10.3263L14.3879 11.3044C14.5202 11.3441 14.6605 11.2689 14.6913 11.1343C15.1245 9.23872 14.0169 7.30216 12.1275 6.73628Z"></path>
  </g>
  <g filter="url(#filter8_i_28327_7581)">
    <path fill="#7AAD33" d="M20.5375 12.4863L23.7979 11.5081C23.9302 11.4685 24.0706 11.5437 24.1013 11.6783C24.5345 13.5731 23.4274 15.5008 21.5475 16.0763L18.2859 17.0547C18.1541 17.0943 18.0141 17.0197 17.9828 16.8857C17.5399 14.9904 18.6476 13.0619 20.5375 12.4863Z"></path>
    <path fill="url(#paint17_radial_28327_7581)" d="M20.5375 12.4863L23.7979 11.5081C23.9302 11.4685 24.0706 11.5437 24.1013 11.6783C24.5345 13.5731 23.4274 15.5008 21.5475 16.0763L18.2859 17.0547C18.1541 17.0943 18.0141 17.0197 17.9828 16.8857C17.5399 14.9904 18.6476 13.0619 20.5375 12.4863Z"></path>
    <path fill="url(#paint18_radial_28327_7581)" d="M20.5375 12.4863L23.7979 11.5081C23.9302 11.4685 24.0706 11.5437 24.1013 11.6783C24.5345 13.5731 23.4274 15.5008 21.5475 16.0763L18.2859 17.0547C18.1541 17.0943 18.0141 17.0197 17.9828 16.8857C17.5399 14.9904 18.6476 13.0619 20.5375 12.4863Z"></path>
  </g>
  <g filter="url(#filter9_i_28327_7581)">
    <path fill="#7AAD33" d="M21.3575 6.84639L24.6179 5.86826C24.7502 5.82857 24.8906 5.90377 24.9213 6.03841C25.3545 7.93319 24.2474 9.86092 22.3675 10.4364L19.1063 11.4147C18.9743 11.4543 18.8342 11.3796 18.803 11.2454C18.3597 9.34107 19.4673 7.41248 21.3575 6.84639Z"></path>
    <path fill="url(#paint19_radial_28327_7581)" d="M21.3575 6.84639L24.6179 5.86826C24.7502 5.82857 24.8906 5.90377 24.9213 6.03841C25.3545 7.93319 24.2474 9.86092 22.3675 10.4364L19.1063 11.4147C18.9743 11.4543 18.8342 11.3796 18.803 11.2454C18.3597 9.34107 19.4673 7.41248 21.3575 6.84639Z"></path>
    <path fill="url(#paint20_radial_28327_7581)" d="M21.3575 6.84639L24.6179 5.86826C24.7502 5.82857 24.8906 5.90377 24.9213 6.03841C25.3545 7.93319 24.2474 9.86092 22.3675 10.4364L19.1063 11.4147C18.9743 11.4543 18.8342 11.3796 18.803 11.2454C18.3597 9.34107 19.4673 7.41248 21.3575 6.84639Z"></path>
  </g>
  <path fill="url(#paint21_radial_28327_7581)" d="M9.00745 23.9963L9.78745 28.6863C9.91745 29.4463 10.5674 29.9963 11.3274 29.9963H20.6774C21.4374 29.9963 22.0974 29.4463 22.2174 28.6863L23.0074 23.9963H9.00745Z"></path>
  <path fill="url(#paint22_linear_28327_7581)" d="M9.00745 23.9963L9.78745 28.6863C9.91745 29.4463 10.5674 29.9963 11.3274 29.9963H20.6774C21.4374 29.9963 22.0974 29.4463 22.2174 28.6863L23.0074 23.9963H9.00745Z"></path>
  <path fill="url(#paint23_linear_28327_7581)" d="M9.00745 23.9963L9.78745 28.6863C9.91745 29.4463 10.5674 29.9963 11.3274 29.9963H20.6774C21.4374 29.9963 22.0974 29.4463 22.2174 28.6863L23.0074 23.9963H9.00745Z"></path>
  <path fill="url(#paint24_linear_28327_7581)" d="M9.00745 23.9963L9.78745 28.6863C9.91745 29.4463 10.5674 29.9963 11.3274 29.9963H20.6774C21.4374 29.9963 22.0974 29.4463 22.2174 28.6863L23.0074 23.9963H9.00745Z"></path>
  <path fill="url(#paint25_radial_28327_7581)" d="M23.5074 23.9963H8.50745C8.22745 23.9963 8.00745 23.7763 8.00745 23.4963V20.4963C8.00745 20.2163 8.22745 19.9963 8.50745 19.9963H23.5074C23.7874 19.9963 24.0074 20.2163 24.0074 20.4963V23.4963C24.0074 23.7763 23.7874 23.9963 23.5074 23.9963Z"></path>
  <path fill="url(#paint26_linear_28327_7581)" d="M23.5074 23.9963H8.50745C8.22745 23.9963 8.00745 23.7763 8.00745 23.4963V20.4963C8.00745 20.2163 8.22745 19.9963 8.50745 19.9963H23.5074C23.7874 19.9963 24.0074 20.2163 24.0074 20.4963V23.4963C24.0074 23.7763 23.7874 23.9963 23.5074 23.9963Z"></path>
  <path fill="url(#paint27_linear_28327_7581)" d="M23.5074 23.9963H8.50745C8.22745 23.9963 8.00745 23.7763 8.00745 23.4963V20.4963C8.00745 20.2163 8.22745 19.9963 8.50745 19.9963H23.5074C23.7874 19.9963 24.0074 20.2163 24.0074 20.4963V23.4963C24.0074 23.7763 23.7874 23.9963 23.5074 23.9963Z"></path>
  <path fill="url(#paint28_linear_28327_7581)" d="M23.5074 23.9963H8.50745C8.22745 23.9963 8.00745 23.7763 8.00745 23.4963V20.4963C8.00745 20.2163 8.22745 19.9963 8.50745 19.9963H23.5074C23.7874 19.9963 24.0074 20.2163 24.0074 20.4963V23.4963C24.0074 23.7763 23.7874 23.9963 23.5074 23.9963Z"></path>
  <g filter="url(#filter10_f_28327_7581)">
    <path stroke="url(#paint29_linear_28327_7581)" stroke-linecap="round" stroke-width=".4" d="M11.0521 20.4722H23.4627"></path>
  </g>
  <g filter="url(#filter11_f_28327_7581)">
    <path stroke="url(#paint30_linear_28327_7581)" stroke-linecap="round" stroke-width=".5" d="M17.6818 2.79858C18.157 3.60919 18.9271 5.38413 18.1864 7.85786"></path>
  </g>
  <g filter="url(#filter12_f_28327_7581)">
    <path stroke="url(#paint31_radial_28327_7581)" stroke-linecap="round" stroke-width=".4" d="M11.1562 6.95312L12.2618 7.32925C12.5344 7.42198 12.8009 7.53816 13.0218 7.72277C13.5143 8.13428 14.1396 8.87887 14.2188 9.82812"></path>
  </g>
  <g filter="url(#filter13_f_28327_7581)">
    <path stroke="url(#paint32_radial_28327_7581)" stroke-linecap="round" stroke-width=".4" d="M9.75623 11.9539L10.8618 12.33C11.1344 12.4227 11.4009 12.5389 11.6218 12.7235C12.1143 13.135 12.7396 13.8796 12.8187 14.8289"></path>
  </g>
  <defs>
    <linearGradient id="paint0_linear_28327_7581" x1="17.134" x2="17.134" y1="8.946" y2="9.703" gradientUnits="userSpaceOnUse">
      <stop stop-color="#3F6928"></stop>
      <stop offset="1" stop-color="#3F6928" stop-opacity="0"></stop>
    </linearGradient>
    <linearGradient id="paint1_linear_28327_7581" x1="12.969" x2="13.198" y1="16.309" y2="15.721" gradientUnits="userSpaceOnUse">
      <stop stop-color="#4A5B3B"></stop>
      <stop offset="1" stop-color="#4A5B3B" stop-opacity="0"></stop>
    </linearGradient>
    <linearGradient id="paint2_linear_28327_7581" x1="13.826" x2="14.104" y1="11.457" y2="10.69" gradientUnits="userSpaceOnUse">
      <stop stop-color="#4A5B3B"></stop>
      <stop offset="1" stop-color="#4A5B3B" stop-opacity="0"></stop>
    </linearGradient>
    <linearGradient id="paint4_linear_28327_7581" x1="17.393" x2="17.273" y1="17.445" y2="17.076" gradientUnits="userSpaceOnUse">
      <stop stop-color="#4A5B3B"></stop>
      <stop offset="1" stop-color="#4A5B3B" stop-opacity="0"></stop>
    </linearGradient>
    <linearGradient id="paint5_linear_28327_7581" x1="18.807" x2="18.628" y1="11.636" y2="11.271" gradientUnits="userSpaceOnUse">
      <stop stop-color="#4A5B3B"></stop>
      <stop offset="1" stop-color="#4A5B3B" stop-opacity="0"></stop>
    </linearGradient>
    <linearGradient id="paint6_linear_28327_7581" x1="19.076" x2="18.349" y1="11.148" y2="11.346" gradientUnits="userSpaceOnUse">
      <stop stop-color="#4A5B3B"></stop>
      <stop offset="1" stop-color="#4A5B3B" stop-opacity="0"></stop>
    </linearGradient>
    <linearGradient id="paint7_linear_28327_7581" x1="15.133" x2="17.836" y1="10.898" y2="11.828" gradientUnits="userSpaceOnUse">
      <stop stop-color="#608246"></stop>
      <stop offset="1" stop-color="#608246" stop-opacity="0"></stop>
    </linearGradient>
    <linearGradient id="paint8_linear_28327_7581" x1="13.716" x2="18.05" y1="15.726" y2="16.907" gradientUnits="userSpaceOnUse">
      <stop stop-color="#648746"></stop>
      <stop offset="1" stop-color="#648746" stop-opacity="0"></stop>
    </linearGradient>
    <linearGradient id="paint9_linear_28327_7581" x1="17.982" x2="13.647" y1="16.616" y2="17.797" gradientUnits="userSpaceOnUse">
      <stop stop-color="#648746"></stop>
      <stop offset="1" stop-color="#648746" stop-opacity="0"></stop>
    </linearGradient>
    <linearGradient id="paint10_linear_28327_7581" x1="19.337" x2="15.003" y1="10.757" y2="11.937" gradientUnits="userSpaceOnUse">
      <stop stop-color="#648746"></stop>
      <stop offset="1" stop-color="#648746" stop-opacity="0"></stop>
    </linearGradient>
    <linearGradient id="paint11_linear_28327_7581" x1="17.237" x2="17.237" y1="10.766" y2="19.236" gradientUnits="userSpaceOnUse">
      <stop stop-color="#608246"></stop>
      <stop offset="1" stop-color="#728C5B"></stop>
    </linearGradient>
    <linearGradient id="paint14_linear_28327_7581" x1="17.558" x2="17.558" y1="2.667" y2="8.692" gradientUnits="userSpaceOnUse">
      <stop stop-color="#9CD740"></stop>
      <stop offset="1" stop-color="#9CD740" stop-opacity="0"></stop>
    </linearGradient>
    <linearGradient id="paint22_linear_28327_7581" x1="8.469" x2="13.031" y1="27.281" y2="26.996" gradientUnits="userSpaceOnUse">
      <stop stop-color="#B17A60"></stop>
      <stop offset="1" stop-color="#B17A60" stop-opacity="0"></stop>
    </linearGradient>
    <linearGradient id="paint23_linear_28327_7581" x1="16.007" x2="16.007" y1="28.688" y2="30.313" gradientUnits="userSpaceOnUse">
      <stop offset=".011" stop-color="#D37082" stop-opacity="0"></stop>
      <stop offset="1" stop-color="#D37082"></stop>
    </linearGradient>
    <linearGradient id="paint24_linear_28327_7581" x1="16.007" x2="16.007" y1="23.924" y2="24.489" gradientUnits="userSpaceOnUse">
      <stop stop-color="#C87156"></stop>
      <stop offset="1" stop-color="#C87156" stop-opacity="0"></stop>
    </linearGradient>
    <linearGradient id="paint26_linear_28327_7581" x1="7.5" x2="17" y1="23.996" y2="23.996" gradientUnits="userSpaceOnUse">
      <stop stop-color="#AE7F61"></stop>
      <stop offset="1" stop-color="#AE7F61" stop-opacity="0"></stop>
    </linearGradient>
    <linearGradient id="paint27_linear_28327_7581" x1="16.007" x2="16.007" y1="23.547" y2="23.996" gradientUnits="userSpaceOnUse">
      <stop stop-color="#D1556C" stop-opacity="0"></stop>
      <stop offset="1" stop-color="#D37082"></stop>
      <stop offset="1" stop-color="#D1556C"></stop>
    </linearGradient>
    <linearGradient id="paint28_linear_28327_7581" x1="16.007" x2="16.007" y1="19.675" y2="20.317" gradientUnits="userSpaceOnUse">
      <stop stop-color="#E6AB68"></stop>
      <stop offset="1" stop-color="#E6AB68" stop-opacity="0"></stop>
    </linearGradient>
    <linearGradient id="paint29_linear_28327_7581" x1="24.132" x2="11.583" y1="20.39" y2="20.39" gradientUnits="userSpaceOnUse">
      <stop stop-color="#FCD08F" stop-opacity="0"></stop>
      <stop offset=".287" stop-color="#FFCD91"></stop>
      <stop offset=".795" stop-color="#FCD08F" stop-opacity="0"></stop>
    </linearGradient>
    <linearGradient id="paint30_linear_28327_7581" x1="18.325" x2="18.325" y1="2.533" y2="9.577" gradientUnits="userSpaceOnUse">
      <stop stop-color="#B9EE6E"></stop>
      <stop offset="1" stop-color="#B9EE6E" stop-opacity="0"></stop>
    </linearGradient>
    <filter id="filter0_f_28327_7581" width="3.461" height="1.563" x="14.226" y="10.391" color-interpolation-filters="sRGB" filterUnits="userSpaceOnUse">
      <feFlood flood-opacity="0" result="BackgroundImageFix"></feFlood>
      <feBlend in="SourceGraphic" in2="BackgroundImageFix" result="shape"></feBlend>
      <feGaussianBlur result="effect1_foregroundBlur_28327_7581" stdDeviation=".125"></feGaussianBlur>
    </filter>
    <filter id="filter1_f_28327_7581" width="3.461" height="1.563" x="12.809" y="15.219" color-interpolation-filters="sRGB" filterUnits="userSpaceOnUse">
      <feFlood flood-opacity="0" result="BackgroundImageFix"></feFlood>
      <feBlend in="SourceGraphic" in2="BackgroundImageFix" result="shape"></feBlend>
      <feGaussianBlur result="effect1_foregroundBlur_28327_7581" stdDeviation=".125"></feGaussianBlur>
    </filter>
    <filter id="filter2_f_28327_7581" width="3.461" height="1.563" x="15.427" y="16.109" color-interpolation-filters="sRGB" filterUnits="userSpaceOnUse">
      <feFlood flood-opacity="0" result="BackgroundImageFix"></feFlood>
      <feBlend in="SourceGraphic" in2="BackgroundImageFix" result="shape"></feBlend>
      <feGaussianBlur result="effect1_foregroundBlur_28327_7581" stdDeviation=".125"></feGaussianBlur>
    </filter>
    <filter id="filter3_f_28327_7581" width="3.461" height="1.563" x="16.782" y="10.249" color-interpolation-filters="sRGB" filterUnits="userSpaceOnUse">
      <feFlood flood-opacity="0" result="BackgroundImageFix"></feFlood>
      <feBlend in="SourceGraphic" in2="BackgroundImageFix" result="shape"></feBlend>
      <feGaussianBlur result="effect1_foregroundBlur_28327_7581" stdDeviation=".125"></feGaussianBlur>
    </filter>
    <filter id="filter4_f_28327_7581" width="2.287" height="10.156" x="15.645" y="8.611" color-interpolation-filters="sRGB" filterUnits="userSpaceOnUse">
      <feFlood flood-opacity="0" result="BackgroundImageFix"></feFlood>
      <feBlend in="SourceGraphic" in2="BackgroundImageFix" result="shape"></feBlend>
      <feGaussianBlur result="effect1_foregroundBlur_28327_7581" stdDeviation=".125"></feGaussianBlur>
    </filter>
    <filter id="filter5_f_28327_7581" width="4.296" height="8.025" x="15.409" y="1.667" color-interpolation-filters="sRGB" filterUnits="userSpaceOnUse">
      <feFlood flood-opacity="0" result="BackgroundImageFix"></feFlood>
      <feBlend in="SourceGraphic" in2="BackgroundImageFix" result="shape"></feBlend>
      <feGaussianBlur result="effect1_foregroundBlur_28327_7581" stdDeviation=".5"></feGaussianBlur>
    </filter>
    <filter id="filter6_i_28327_7581" width="6.309" height="5.568" x="7" y="10.538" color-interpolation-filters="sRGB" filterUnits="userSpaceOnUse">
      <feFlood flood-opacity="0" result="BackgroundImageFix"></feFlood>
      <feBlend in="SourceGraphic" in2="BackgroundImageFix" result="shape"></feBlend>
      <feColorMatrix in="SourceAlpha" result="hardAlpha" values="0 0 0 0 0 0 0 0 0 0 0 0 0 0 0 0 0 0 127 0"></feColorMatrix>
      <feOffset></feOffset>
      <feGaussianBlur stdDeviation=".125"></feGaussianBlur>
      <feComposite in2="hardAlpha" k2="-1" k3="1" operator="arithmetic"></feComposite>
      <feColorMatrix values="0 0 0 0 0.713726 0 0 0 0 0.784314 0 0 0 0 0.647059 0 0 0 1 0"></feColorMatrix>
      <feBlend in2="shape" result="effect1_innerShadow_28327_7581"></feBlend>
    </filter>
    <filter id="filter7_i_28327_7581" width="6.311" height="5.567" x="8.474" y="5.748" color-interpolation-filters="sRGB" filterUnits="userSpaceOnUse">
      <feFlood flood-opacity="0" result="BackgroundImageFix"></feFlood>
      <feBlend in="SourceGraphic" in2="BackgroundImageFix" result="shape"></feBlend>
      <feColorMatrix in="SourceAlpha" result="hardAlpha" values="0 0 0 0 0 0 0 0 0 0 0 0 0 0 0 0 0 0 127 0"></feColorMatrix>
      <feOffset></feOffset>
      <feGaussianBlur stdDeviation=".125"></feGaussianBlur>
      <feComposite in2="hardAlpha" k2="-1" k3="1" operator="arithmetic"></feComposite>
      <feColorMatrix values="0 0 0 0 0.713726 0 0 0 0 0.784314 0 0 0 0 0.647059 0 0 0 1 0"></feColorMatrix>
      <feBlend in2="shape" result="effect1_innerShadow_28327_7581"></feBlend>
    </filter>
    <filter id="filter8_i_28327_7581" width="6.309" height="5.568" x="17.886" y="11.498" color-interpolation-filters="sRGB" filterUnits="userSpaceOnUse">
      <feFlood flood-opacity="0" result="BackgroundImageFix"></feFlood>
      <feBlend in="SourceGraphic" in2="BackgroundImageFix" result="shape"></feBlend>
      <feColorMatrix in="SourceAlpha" result="hardAlpha" values="0 0 0 0 0 0 0 0 0 0 0 0 0 0 0 0 0 0 127 0"></feColorMatrix>
      <feOffset></feOffset>
      <feGaussianBlur stdDeviation=".125"></feGaussianBlur>
      <feComposite in2="hardAlpha" k2="-1" k3="1" operator="arithmetic"></feComposite>
      <feColorMatrix values="0 0 0 0 0.713726 0 0 0 0 0.784314 0 0 0 0 0.647059 0 0 0 1 0"></feColorMatrix>
      <feBlend in2="shape" result="effect1_innerShadow_28327_7581"></feBlend>
    </filter>
    <filter id="filter9_i_28327_7581" width="6.309" height="5.568" x="18.706" y="5.858" color-interpolation-filters="sRGB" filterUnits="userSpaceOnUse">
      <feFlood flood-opacity="0" result="BackgroundImageFix"></feFlood>
      <feBlend in="SourceGraphic" in2="BackgroundImageFix" result="shape"></feBlend>
      <feColorMatrix in="SourceAlpha" result="hardAlpha" values="0 0 0 0 0 0 0 0 0 0 0 0 0 0 0 0 0 0 127 0"></feColorMatrix>
      <feOffset></feOffset>
      <feGaussianBlur stdDeviation=".125"></feGaussianBlur>
      <feComposite in2="hardAlpha" k2="-1" k3="1" operator="arithmetic"></feComposite>
      <feColorMatrix values="0 0 0 0 0.713726 0 0 0 0 0.784314 0 0 0 0 0.647059 0 0 0 1 0"></feColorMatrix>
      <feBlend in2="shape" result="effect1_innerShadow_28327_7581"></feBlend>
    </filter>
    <filter id="filter10_f_28327_7581" width="13.411" height="1" x="10.552" y="19.972" color-interpolation-filters="sRGB" filterUnits="userSpaceOnUse">
      <feFlood flood-opacity="0" result="BackgroundImageFix"></feFlood>
      <feBlend in="SourceGraphic" in2="BackgroundImageFix" result="shape"></feBlend>
      <feGaussianBlur result="effect1_foregroundBlur_28327_7581" stdDeviation=".15"></feGaussianBlur>
    </filter>
    <filter id="filter11_f_28327_7581" width="2.512" height="6.759" x="16.832" y="1.949" color-interpolation-filters="sRGB" filterUnits="userSpaceOnUse">
      <feFlood flood-opacity="0" result="BackgroundImageFix"></feFlood>
      <feBlend in="SourceGraphic" in2="BackgroundImageFix" result="shape"></feBlend>
      <feGaussianBlur result="effect1_foregroundBlur_28327_7581" stdDeviation=".3"></feGaussianBlur>
    </filter>
    <filter id="filter12_f_28327_7581" width="4.263" height="4.075" x="10.556" y="6.353" color-interpolation-filters="sRGB" filterUnits="userSpaceOnUse">
      <feFlood flood-opacity="0" result="BackgroundImageFix"></feFlood>
      <feBlend in="SourceGraphic" in2="BackgroundImageFix" result="shape"></feBlend>
      <feGaussianBlur result="effect1_foregroundBlur_28327_7581" stdDeviation=".2"></feGaussianBlur>
    </filter>
    <filter id="filter13_f_28327_7581" width="4.263" height="4.075" x="9.156" y="11.354" color-interpolation-filters="sRGB" filterUnits="userSpaceOnUse">
      <feFlood flood-opacity="0" result="BackgroundImageFix"></feFlood>
      <feBlend in="SourceGraphic" in2="BackgroundImageFix" result="shape"></feBlend>
      <feGaussianBlur result="effect1_foregroundBlur_28327_7581" stdDeviation=".2"></feGaussianBlur>
    </filter>
    <radialGradient id="paint3_radial_28327_7581" cx="0" cy="0" r="1" gradientTransform="rotate(163.277 7.903 9.818)scale(1.2153 1.86926)" gradientUnits="userSpaceOnUse">
      <stop stop-color="#4A5B3B"></stop>
      <stop offset="1" stop-color="#4A5B3B" stop-opacity="0"></stop>
    </radialGradient>
    <radialGradient id="paint12_radial_28327_7581" cx="0" cy="0" r="1" gradientTransform="matrix(0 -2.3759 9.50361 0 14.6 20.22)" gradientUnits="userSpaceOnUse">
      <stop stop-color="#774336"></stop>
      <stop offset="1" stop-color="#714F4A"></stop>
    </radialGradient>
    <radialGradient id="paint13_radial_28327_7581" cx="0" cy="0" r="1" gradientTransform="matrix(-2.45976 0 0 -6.95372 18.654 5.68)" gradientUnits="userSpaceOnUse">
      <stop stop-color="#A5D949"></stop>
      <stop offset="1" stop-color="#80B93F"></stop>
    </radialGradient>
    <radialGradient id="paint15_radial_28327_7581" cx="0" cy="0" r="1" gradientTransform="rotate(-150.851 8.79 5.076)scale(9.94444 3.64933)" gradientUnits="userSpaceOnUse">
      <stop stop-color="#AAE057"></stop>
      <stop offset="1" stop-color="#AAE057" stop-opacity="0"></stop>
    </radialGradient>
    <radialGradient id="paint16_radial_28327_7581" cx="0" cy="0" r="1" gradientTransform="matrix(-8.6875 -4.84375 1.77725 -3.1876 15.469 9)" gradientUnits="userSpaceOnUse">
      <stop stop-color="#AAE057"></stop>
      <stop offset="1" stop-color="#AAE057" stop-opacity="0"></stop>
    </radialGradient>
    <radialGradient id="paint17_radial_28327_7581" cx="0" cy="0" r="1" gradientTransform="rotate(139.185 9.802 10.385)scale(8.09043 3.57458)" gradientUnits="userSpaceOnUse">
      <stop stop-color="#AAE057"></stop>
      <stop offset="1" stop-color="#AAE057" stop-opacity="0"></stop>
    </radialGradient>
    <radialGradient id="paint18_radial_28327_7581" cx="0" cy="0" r="1" gradientTransform="matrix(-1.24899 1.88738 -.4373 -.2894 24.195 11.251)" gradientUnits="userSpaceOnUse">
      <stop stop-color="#ACE461"></stop>
      <stop offset="1" stop-color="#ACE461" stop-opacity="0"></stop>
    </radialGradient>
    <radialGradient id="paint19_radial_28327_7581" cx="0" cy="0" r="1" gradientTransform="rotate(139.185 11.261 7.718)scale(8.09043 3.57458)" gradientUnits="userSpaceOnUse">
      <stop stop-color="#AAE057"></stop>
      <stop offset="1" stop-color="#AAE057" stop-opacity="0"></stop>
    </radialGradient>
    <radialGradient id="paint20_radial_28327_7581" cx="0" cy="0" r="1" gradientTransform="matrix(-1.24899 1.88738 -.4373 -.2894 25.015 5.612)" gradientUnits="userSpaceOnUse">
      <stop stop-color="#ACE461"></stop>
      <stop offset="1" stop-color="#ACE461" stop-opacity="0"></stop>
    </radialGradient>
    <radialGradient id="paint21_radial_28327_7581" cx="0" cy="0" r="1" gradientTransform="rotate(-140.346 15.876 10.732)scale(8.03669 7.80374)" gradientUnits="userSpaceOnUse">
      <stop offset=".171" stop-color="#FFBB7A"></stop>
      <stop offset="1" stop-color="#CF7D5B"></stop>
    </radialGradient>
    <radialGradient id="paint25_radial_28327_7581" cx="0" cy="0" r="1" gradientTransform="matrix(-5.24257 -5.68749 4.40502 -4.06042 21.25 23.063)" gradientUnits="userSpaceOnUse">
      <stop offset=".313" stop-color="#FFBD80"></stop>
      <stop offset="1" stop-color="#E09369"></stop>
    </radialGradient>
    <radialGradient id="paint31_radial_28327_7581" cx="0" cy="0" r="1" gradientTransform="matrix(-.5625 .64062 -114.12824 -100.21118 13.36 8.016)" gradientUnits="userSpaceOnUse">
      <stop stop-color="#B3E468"></stop>
      <stop offset="1" stop-color="#B3E468" stop-opacity="0"></stop>
    </radialGradient>
    <radialGradient id="paint32_radial_28327_7581" cx="0" cy="0" r="1" gradientTransform="matrix(-.5625 .64062 -114.12824 -100.21118 11.96 13.016)" gradientUnits="userSpaceOnUse">
      <stop stop-color="#B3E468"></stop>
      <stop offset="1" stop-color="#B3E468" stop-opacity="0"></stop>
    </radialGradient>
  </defs>
</svg>
