<svg xmlns="http://www.w3.org/2000/svg" enable-background="new 0 0 32 32" viewBox="0 0 32 32" id="shield">
  <path d="M27.414,7.09l-11-5c-0.004-0.002-0.008-0.001-0.012-0.003c-0.254-0.112-0.55-0.112-0.805,0
	c-0.004,0.002-0.008,0.001-0.012,0.003l-11,5C4.229,7.252,4,7.608,4,8v8c0,8.043,4.094,11.103,11.648,13.937
	c0.219,0.082,0.468,0.087,0.701,0C23.905,27.118,28,24.062,28,16V8C28,7.608,27.771,7.252,27.414,7.09z M25,9.288V15h-8V5.651
	L25,9.288z M7.023,17H15v9.454C9.174,24.034,7.245,21.725,7.023,17z"></path>
</svg>
