<svg xmlns="http://www.w3.org/2000/svg" viewBox="0 0 24 24" id="trash">
  <path d="m19,5.25h-3.25v-1.25c0-.965-.785-1.75-1.75-1.75h-4c-.965,0-1.75.785-1.75,1.75v1.25h-3.25c-.414,0-.75.336-.75.75s.336.75.75.75h.299l.829,12.433c.095,1.439,1.3,2.567,2.743,2.567h6.258c1.443,0,2.648-1.128,2.743-2.567l.829-12.433h.299c.414,0,.75-.336.75-.75s-.336-.75-.75-.75Zm-9.25-1.25c0-.138.112-.25.25-.25h4c.138,0,.25.112.25.25v1.25h-4.5v-1.25Zm1,12c0,.414-.336.75-.75.75s-.75-.336-.75-.75v-5c0-.414.336-.75.75-.75s.75.336.75.75v5Zm4,0c0,.414-.336.75-.75.75s-.75-.336-.75-.75v-5c0-.414.336-.75.75-.75s.75.336.75.75v5Z"></path>
</svg>
