<svg xmlns="http://www.w3.org/2000/svg" width="512" height="512" fill="none" viewBox="0 0 512 512" id="upload">
  <path fill="#000" fill-rule="evenodd" d="M397.388 216.781C385.627 228.542 366.557 228.542 354.795 216.781L286.118 148.103 286.118 300.232C286.118 316.865 272.634 330.349 256 330.349 239.367 330.349 225.883 316.865 225.883 300.232L225.883 148.103 157.205 216.781C145.443 228.542 126.374 228.542 114.612 216.781 102.85 205.019 102.85 185.949 114.612 174.188L234.704 54.0961C246.465 42.3345 265.535 42.3345 277.297 54.0962L397.388 174.188C409.15 185.95 409.15 205.019 397.388 216.781ZM60.2354 421.647C60.2354 405.013 73.7195 391.529 90.353 391.529H421.647C438.281 391.529 451.765 405.013 451.765 421.647 451.765 438.28 438.281 451.765 421.647 451.765H90.353C73.7195 451.765 60.2354 438.28 60.2354 421.647Z" clip-rule="evenodd"></path>
</svg>
